<?xml version="1.0" encoding="UTF-8"?>
<svg version="1.1" xmlns="http://www.w3.org/2000/svg" width="32" height="32">
<path d="M0 0 C2.9375 0.625 2.9375 0.625 5 2 C6.75 5.0625 6.75 5.0625 8 8 C8.33 8.33 8.66 8.66 9 9 C9.12583966 10.934419 9.17578009 12.87402763 9.1875 14.8125 C9.20167969 15.87082031 9.21585938 16.92914062 9.23046875 18.01953125 C9.00183283 20.97629745 8.75579368 22.62386281 7 25 C3.59042911 26.48036796 -0.27273163 26.20306593 -3.9375 26.25 C-5.14277344 26.27578125 -6.34804687 26.3015625 -7.58984375 26.328125 C-11.26848795 25.97416611 -13.11523379 25.27381204 -16 23 C-16.97608217 20.07175348 -17.08226668 18.04386724 -17 15 C-16.34 15 -15.68 15 -15 15 C-15.66 12.69 -16.32 10.38 -17 8 C-16 7 -16 7 -13.7421875 6.9375 C-12.79601562 6.958125 -11.84984375 6.97875 -10.875 7 C-6.44590575 7.04619655 -2.35483796 6.77419341 2 6 C-0.50456942 3.59561336 -1.86893618 3.01456265 -5.375 2.625 C-9.23516636 3.02432755 -11.67388155 4.05300383 -15 6 C-11.93355846 -1.07640356 -6.8340298 -0.50298459 0 0 Z M-3 12 C-0.36 12 2.28 12 5 12 C4.34 11.34 3.68 10.68 3 10 C-0.18490007 9.7226499 -0.18490007 9.7226499 -3 12 Z M-14 15 C-13.34 16.65 -12.68 18.3 -12 20 C-11.67 19.34 -11.34 18.68 -11 18 C-11.99 17.01 -12.98 16.02 -14 15 Z M-4 15 C-4 15.33 -4 15.66 -4 16 C-0.7 16 2.6 16 6 16 C6 15.67 6 15.34 6 15 C2.7 15 -0.6 15 -4 15 Z M-2 19 C-0.35 19 1.3 19 3 19 C3.33 18.34 3.66 17.68 4 17 C0.81509993 16.7226499 0.81509993 16.7226499 -2 19 Z M-5 17 C-5.66 17.66 -6.32 18.32 -7 19 C-6.01 19 -5.02 19 -4 19 C-4.33 18.34 -4.66 17.68 -5 17 Z M-10 20 C-10.33 20.99 -10.66 21.98 -11 23 C-8.08291076 24.98362069 -6.87619096 24.9876191 -3.25 24.625 C-1.64125 24.315625 -1.64125 24.315625 0 24 C-3.22515763 22.26337666 -6.51329166 21.1094072 -10 20 Z M-1 21 C-0.67 21.66 -0.34 22.32 0 23 C0.66 22.67 1.32 22.34 2 22 C1.01 21.67 0.02 21.34 -1 21 Z " fill="#5F6E8A" transform="translate(20,3)"/>
<path d="M0 0 C4.95 0 9.9 0 15 0 C15 4 15 4 13.5625 5.5 C13.046875 5.995 12.53125 6.49 12 7 C11.28552357 9.10332891 11.28552357 9.10332891 11 11 C7.8125 11.5 7.8125 11.5 4 11 C1.72466929 8.63652088 0.13078877 6.08022149 -1 3 C-0.67 2.01 -0.34 1.02 0 0 Z " fill="#3C4F74" transform="translate(4,10)"/>
<path d="M0 0 C2.9375 0.625 2.9375 0.625 5 2 C6.75 5.0625 6.75 5.0625 8 8 C8.33 8.33 8.66 8.66 9 9 C9.04063832 10.66617115 9.042721 12.33388095 9 14 C8.67 13.01 8.34 12.02 8 11 C7.01 11.33 6.02 11.66 5 12 C2.64811553 11.40206327 0.31074405 10.74118205 -2 10 C-1.67 9.01 -1.34 8.02 -1 7 C-0.01 6.67 0.98 6.34 2 6 C-0.50456942 3.59561336 -1.86893618 3.01456265 -5.375 2.625 C-9.23516636 3.02432755 -11.67388155 4.05300383 -15 6 C-11.93355846 -1.07640356 -6.8340298 -0.50298459 0 0 Z " fill="#3FB2C9" transform="translate(20,3)"/>
<path d="M0 0 C1.17353189 3.52059568 1.20146402 6.306493 1 10 C0.34 10.66 -0.32 11.32 -1 12 C-2.32 12 -3.64 12 -5 12 C-5 10.35 -5 8.7 -5 7 C-7.31 6.67 -9.62 6.34 -12 6 C-11.67 4.35 -11.34 2.7 -11 1 C-9.54182203 0.83197949 -8.0834516 0.66562857 -6.625 0.5 C-5.81289063 0.4071875 -5.00078125 0.314375 -4.1640625 0.21875 C-2 0 -2 0 0 0 Z " fill="#396D95" transform="translate(28,14)"/>
<path d="M0 0 C1.134375 0.020625 2.26875 0.04125 3.4375 0.0625 C3.581875 0.68125 3.72625 1.3 3.875 1.9375 C4.36902225 4.09508322 4.36902225 4.09508322 5.4375 6.0625 C4.4475 6.0625 3.4575 6.0625 2.4375 6.0625 C2.1075 7.7125 1.7775 9.3625 1.4375 11.0625 C-1.30527578 7.86259492 -3.1927836 5.05750618 -4.5625 1.0625 C-3.5625 0.0625 -3.5625 0.0625 0 0 Z " fill="#405F80" transform="translate(7.5625,9.9375)"/>
<path d="M0 0 C0.33 1.32 0.66 2.64 1 4 C-3.29 4 -7.58 4 -12 4 C-11.67 3.01 -11.34 2.02 -11 1 C-9.54182203 0.83197949 -8.0834516 0.66562857 -6.625 0.5 C-5.81289063 0.4071875 -5.00078125 0.314375 -4.1640625 0.21875 C-2 0 -2 0 0 0 Z " fill="#2D8AA7" transform="translate(28,14)"/>
<path d="M0 0 C2.475 0.495 2.475 0.495 5 1 C5 1.66 5 2.32 5 3 C7.64458379 4.32229189 9.67761301 4.09677194 12.625 4.0625 C13.62789062 4.05347656 14.63078125 4.04445313 15.6640625 4.03515625 C16.82035156 4.01775391 16.82035156 4.01775391 18 4 C18 4.66 18 5.32 18 6 C15.75059705 6.08119503 13.50035129 6.13927819 11.25 6.1875 C9.99703125 6.22230469 8.7440625 6.25710937 7.453125 6.29296875 C3.85621628 5.98780115 2.42834703 5.63070928 0 3 C0 2.01 0 1.02 0 0 Z " fill="#3A5A7A" transform="translate(5,23)"/>
<path d="M0 0 C0.99 0 1.98 0 3 0 C3.66 1.32 4.32 2.64 5 4 C5.78375 3.79375 6.5675 3.5875 7.375 3.375 C8.674375 3.189375 8.674375 3.189375 10 3 C10.66 3.66 11.32 4.32 12 5 C8.30458414 5.95024979 5.69541586 5.95024979 2 5 C1.67 5.99 1.34 6.98 1 8 C0.02391783 5.07175348 -0.08226668 3.04386724 0 0 Z " fill="#5E8594" transform="translate(3,18)"/>
<path d="M0 0 C0.90105469 0.01804688 1.80210938 0.03609375 2.73046875 0.0546875 C3.41753906 0.07789063 4.10460938 0.10109375 4.8125 0.125 C3.8225 1.61 3.8225 1.61 2.8125 3.125 C0.47916667 3.125 -1.85416667 3.125 -4.1875 3.125 C-7.53911246 4.50714122 -7.53911246 4.50714122 -10.1875 6.125 C-7.96735818 1.00159579 -5.45984177 -0.14181407 0 0 Z " fill="#4DC8D6" transform="translate(15.1875,2.875)"/>
<path d="M0 0 C3.63 0.33 7.26 0.66 11 1 C11 2.65 11 4.3 11 6 C10.67 5.01 10.34 4.02 10 3 C9.01 3.33 8.02 3.66 7 4 C4.64811553 3.40206327 2.31074405 2.74118205 0 2 C0 1.34 0 0.68 0 0 Z " fill="#4CA7B9" transform="translate(18,11)"/>
<path d="M0 0 C2.31 0 4.62 0 7 0 C7 1.32 7 2.64 7 4 C6.34 4 5.68 4 5 4 C5 3.34 5 2.68 5 2 C3.35 2.66 1.7 3.32 0 4 C0 2.68 0 1.36 0 0 Z " fill="#5E9BB0" transform="translate(4,10)"/>
<path d="M0 0 C0.33 0.66 0.66 1.32 1 2 C1.99 2.33 2.98 2.66 4 3 C4 3.33 4 3.66 4 4 C1.03 4 -1.94 4 -5 4 C-5 3.34 -5 2.68 -5 2 C-3.35 2 -1.7 2 0 2 C0 1.34 0 0.68 0 0 Z " fill="#3BBDCF" transform="translate(24,8)"/>
<path d="M0 0 C0.33 1.32 0.66 2.64 1 4 C-0.65 4.33 -2.3 4.66 -4 5 C-4 4.01 -4 3.02 -4 2 C-2.68 1.34 -1.36 0.68 0 0 Z " fill="#344E73" transform="translate(27,21)"/>
<path d="M0 0 C0.99 0.33 1.98 0.66 3 1 C3 1.33 3 1.66 3 2 C1.02 2 -0.96 2 -3 2 C-2.01 1.34 -1.02 0.68 0 0 Z " fill="#489EAF" transform="translate(18,7)"/>
<path d="M0 0 C2.31 0 4.62 0 7 0 C7 0.33 7 0.66 7 1 C4.69 1 2.38 1 0 1 C0 0.67 0 0.34 0 0 Z " fill="#33B9C5" transform="translate(11,6)"/>
<path d="M0 0 C1.32 0.33 2.64 0.66 4 1 C3.01 1.33 2.02 1.66 1 2 C0.67 1.34 0.34 0.68 0 0 Z " fill="#5D9DBA" transform="translate(11,25)"/>
<path d="M0 0 C2 1 2 1 2 1 Z " fill="#59728C" transform="translate(7,8)"/>
<path d="M0 0 C2 1 2 1 2 1 Z " fill="#1FDFDF" transform="translate(9,7)"/>
<path d="M0 0 C2 1 2 1 2 1 Z " fill="#7FFFFF" transform="translate(21,3)"/>
<path d="" fill="#555555" transform="translate(0,0)"/>
<path d="" fill="#005555" transform="translate(0,0)"/>
<path d="" fill="#007F7F" transform="translate(0,0)"/>
<path d="" fill="#7F7F7F" transform="translate(0,0)"/>
<path d="" fill="#7F7F7F" transform="translate(0,0)"/>
<path d="" fill="#000000" transform="translate(0,0)"/>
<path d="" fill="#00FFFF" transform="translate(0,0)"/>
<path d="" fill="#007F7F" transform="translate(0,0)"/>
<path d="" fill="#0000FF" transform="translate(0,0)"/>
<path d="" fill="#FFFFFF" transform="translate(0,0)"/>
<path d="" fill="#7F7F7F" transform="translate(0,0)"/>
<path d="" fill="#7FFFFF" transform="translate(0,0)"/>
<path d="" fill="#55AAFF" transform="translate(0,0)"/>
<path d="" fill="#55AAAA" transform="translate(0,0)"/>
</svg>
