<?xml version="1.0" encoding="UTF-8"?>
<svg version="1.1" xmlns="http://www.w3.org/2000/svg" width="526" height="145">
<path d="M0 0 C0.81598663 0.00041794 1.63197327 0.00083588 2.47268677 0.00126648 C4.19240257 0.00961741 5.91211058 0.03499056 7.63134766 0.07641602 C10.24393948 0.13640023 12.85166344 0.13799921 15.46484375 0.13085938 C17.14326456 0.14627584 18.82165858 0.16504703 20.5 0.1875 C21.65663651 0.18947136 21.65663651 0.18947136 22.8366394 0.19148254 C29.57743579 0.39431764 35.00488505 2.38371426 39.7578125 7.26171875 C42.89320763 12.20599569 43.98404409 15.91210807 43.3828125 21.82421875 C42.465165 23.95475686 41.43115964 25.92929359 40.2578125 27.9296875 C39.10328212 30.08164637 39.10328212 30.08164637 39.3828125 33.82421875 C40.57935159 35.27266081 41.7807211 36.72266322 43.09375 38.06640625 C47.50042063 44.07550257 47.02904736 51.75653619 46.3828125 58.82421875 C44.2391983 68.47690065 38.71965419 77.22406813 31.3828125 83.82421875 C30.7228125 83.82421875 30.0628125 83.82421875 29.3828125 83.82421875 C28.7228125 82.50421875 28.0628125 81.18421875 27.3828125 79.82421875 C27.3828125 81.80421875 27.3828125 83.78421875 27.3828125 85.82421875 C25.4028125 85.82421875 23.4228125 85.82421875 21.3828125 85.82421875 C21.3828125 88.13421875 21.3828125 90.44421875 21.3828125 92.82421875 C19.0078125 93.44921875 19.0078125 93.44921875 16.3828125 93.82421875 C14.3828125 91.82421875 14.3828125 91.82421875 14.2578125 88.69921875 C14.2990625 87.75046875 14.3403125 86.80171875 14.3828125 85.82421875 C12.4028125 85.82421875 10.4228125 85.82421875 8.3828125 85.82421875 C7.7578125 83.44921875 7.7578125 83.44921875 7.3828125 80.82421875 C9.3828125 78.82421875 9.3828125 78.82421875 12.0078125 78.69921875 C12.7915625 78.74046875 13.5753125 78.78171875 14.3828125 78.82421875 C14.3828125 76.84421875 14.3828125 74.86421875 14.3828125 72.82421875 C19.1328125 71.69921875 19.1328125 71.69921875 21.3828125 72.82421875 C21.3828125 74.80421875 21.3828125 76.78421875 21.3828125 78.82421875 C21.7128125 78.49421875 22.0428125 78.16421875 22.3828125 77.82421875 C22.2796875 77.08171875 22.1765625 76.33921875 22.0703125 75.57421875 C22.3828125 72.82421875 22.3828125 72.82421875 25.1328125 70.57421875 C25.67808594 70.16171875 26.22335938 69.74921875 26.78515625 69.32421875 C31.32453374 65.06230932 33.09464885 58.08156251 33.55078125 52.03515625 C33.25705608 48.1689133 31.79542872 44.84542285 29.3828125 41.82421875 C26.3031217 39.93760879 23.92339207 39.55968208 20.33886719 39.50537109 C19.33813171 39.4855014 18.33739624 39.46563171 17.30633545 39.44515991 C15.69676971 39.4278331 15.69676971 39.4278331 14.0546875 39.41015625 C12.95054504 39.3907901 11.84640259 39.37142395 10.70880127 39.35147095 C7.18355017 39.29170983 3.65826635 39.24530311 0.1328125 39.19921875 C-2.25782671 39.16103583 -4.64845221 39.12198392 -7.0390625 39.08203125 C-12.89831576 38.98601108 -18.75765165 38.90095327 -24.6171875 38.82421875 C-24.6171875 34.64896438 -23.61282883 32.21043626 -21.24755859 28.78027344 C-14.98533323 24.12341901 -5.38798375 25.77740063 2.0703125 25.94921875 C4.92381291 25.98286568 7.77663238 26.00378909 10.63032532 26.00924683 C12.40229558 26.01599208 14.17430936 26.04086222 15.94572449 26.08572388 C17.14761162 26.09960648 17.14761162 26.09960648 18.3737793 26.11376953 C19.07738083 26.12981232 19.78098236 26.1458551 20.50590515 26.16238403 C23.01717612 25.70992448 23.88234618 24.86152418 25.3828125 22.82421875 C25.6331702 19.19885899 25.6331702 19.19885899 25.3828125 15.82421875 C21.4551974 14.51501372 17.65710619 14.58959007 13.55859375 14.5078125 C12.26649239 14.47664085 12.26649239 14.47664085 10.94828796 14.44483948 C8.19737706 14.37946966 5.44637094 14.32051743 2.6953125 14.26171875 C0.83006829 14.21852158 -1.0351663 14.1749069 -2.90039062 14.13085938 C-7.47255874 14.02380112 -12.0448226 13.92249821 -16.6171875 13.82421875 C-14.31454561 4.38338698 -9.64986703 -0.29356187 0 0 Z " fill="#1C7E9C" transform="translate(98.6171875,41.17578125)"/>
<path d="M0 0 C2.37625177 -0.10883596 4.74743976 -0.18766696 7.125 -0.25 C7.79015625 -0.28351562 8.4553125 -0.31703125 9.140625 -0.3515625 C14.38039678 -0.45430312 16.93643298 0.80910335 21 4 C23.1340332 6.90087891 23.1340332 6.90087891 25.05078125 10.2265625 C25.39505661 10.81545258 25.73933197 11.40434265 26.09403992 12.01107788 C27.17980253 13.87523336 28.24621435 15.74964991 29.3125 17.625 C30.04628621 18.89134423 30.78130158 20.15697707 31.51757812 21.421875 C36.52602519 30.05205038 36.52602519 30.05205038 38 33 C42.90171026 25.81956825 47.37151813 18.4334548 51.76367188 10.93359375 C52.26833984 10.08152344 52.77300781 9.22945312 53.29296875 8.3515625 C53.7418042 7.58666504 54.19063965 6.82176758 54.65307617 6.03369141 C56.8167679 2.76677966 58.23855533 1.25381489 62 0 C64.39490986 -0.06970052 66.79167691 -0.08448003 69.1875 -0.0625 C70.45980469 -0.05347656 71.73210937 -0.04445312 73.04296875 -0.03515625 C74.50669922 -0.01775391 74.50669922 -0.01775391 76 0 C75.37060199 3.08530128 74.33684084 5.3806471 72.69921875 8.0625 C72.22274902 8.84906982 71.7462793 9.63563965 71.25537109 10.44604492 C70.73797363 11.2888501 70.22057617 12.13165527 69.6875 13 C68.5897319 14.80852586 67.49207887 16.61712158 66.39453125 18.42578125 C65.83072754 19.35084473 65.26692383 20.2759082 64.68603516 21.22900391 C62.06436444 25.53771556 59.46904429 29.86211837 56.875 34.1875 C56.38298096 35.00661865 55.89096191 35.8257373 55.3840332 36.66967773 C51.59010605 42.99330751 47.84045644 49.34224127 44.12060547 55.7097168 C42.47443762 58.52275774 40.80855359 61.28716961 39 64 C38.34 64 37.68 64 37 64 C35.45043945 61.73461914 35.45043945 61.73461914 33.61328125 58.53515625 C33.27924789 57.95887482 32.94521454 57.38259338 32.60105896 56.78884888 C31.87733768 55.53853411 31.15698142 54.286267 30.4395752 53.03231812 C28.92476195 50.38484031 27.39410176 47.74666434 25.86392212 45.10804749 C25.07762726 43.75201067 24.29213414 42.39550868 23.50741577 41.03855896 C19.65437356 34.38141072 15.71456888 27.77880176 11.75 21.1875 C11.14325439 20.17631104 10.53650879 19.16512207 9.91137695 18.12329102 C6.96219755 13.21875393 3.98229722 8.34634915 0.85644531 3.55200195 C0 2 0 2 0 0 Z " fill="#21446C" transform="translate(11,42)"/>
<path d="M0 0 C3.46679688 0.04882812 3.46679688 0.04882812 6.93359375 0.09765625 C7.26359375 5.70765625 7.59359375 11.31765625 7.93359375 17.09765625 C9.58359375 16.10765625 11.23359375 15.11765625 12.93359375 14.09765625 C17.87537349 13.22834159 21.84807401 13.53479416 26.30859375 15.84765625 C27.17484375 16.59015625 28.04109375 17.33265625 28.93359375 18.09765625 C29.67609375 18.69578125 30.41859375 19.29390625 31.18359375 19.91015625 C34.63645305 24.22623037 35.415302 29.53798429 35.24609375 34.984375 C34.42611871 40.52945621 32.12802922 45.41397394 27.87109375 49.09765625 C23.01789006 52.40196514 18.65031159 52.69836215 12.93359375 52.09765625 C9.87109375 50.59765625 9.87109375 50.59765625 7.93359375 49.09765625 C7.60359375 49.61328125 7.27359375 50.12890625 6.93359375 50.66015625 C3.71150023 52.97603597 0.76285931 51.68053841 -3.06640625 51.09765625 C-3.09167412 43.99520626 -3.10923826 36.89276777 -3.12133789 29.7902832 C-3.12637974 27.37198453 -3.13321303 24.95368892 -3.1418457 22.53540039 C-3.15391782 19.06786342 -3.15963588 15.60036659 -3.1640625 12.1328125 C-3.16922379 11.04428482 -3.17438507 9.95575714 -3.17970276 8.83424377 C-3.17977829 7.83328171 -3.17985382 6.83231964 -3.17993164 5.80102539 C-3.18215225 4.91500137 -3.18437286 4.02897736 -3.18666077 3.11610413 C-3.02172266 0.34765112 -2.77185364 0.13099497 0 0 Z M8.93359375 25.09765625 C6.1022755 29.34463363 6.17166055 33.11334324 6.93359375 38.09765625 C8.79001124 41.37165335 8.79001124 41.37165335 11.93359375 43.09765625 C16.20064494 43.78343233 18.14012366 43.59788739 21.80859375 41.28515625 C24.57535122 38.43702356 24.89211863 36.65757039 25.18359375 32.72265625 C24.91408783 28.81482039 24.415016 27.0924762 21.93359375 24.09765625 C16.69178409 21.34570618 13.73816453 21.77141494 8.93359375 25.09765625 Z " fill="#1E2E50" transform="translate(341.06640625,48.90234375)"/>
<path d="M0 0 C2.97 0 5.94 0 9 0 C13.13732414 8.73575639 16.67228466 17.66730799 20.125 26.6875 C20.65465242 28.06326484 21.18459893 29.4389165 21.71484375 30.81445312 C24.17313253 37.1984462 26.61330323 43.58883866 29 50 C25.31244791 50.94822768 22.63471184 51.24224329 19 50 C17.10201876 46.81857013 16.20626918 43.52945426 15 40 C8.07 40 1.14 40 -6 40 C-7.98 44.95 -7.98 44.95 -10 50 C-14.455 50.495 -14.455 50.495 -19 51 C-20 49 -20 49 -19.49505615 47.16741943 C-19.19988098 46.4260675 -18.90470581 45.68471558 -18.60058594 44.92089844 C-18.2698407 44.07952332 -17.93909546 43.23814819 -17.59832764 42.37127686 C-17.23072327 41.45984924 -16.8631189 40.54842163 -16.484375 39.609375 C-16.11274231 38.672005 -15.74110962 37.73463501 -15.35821533 36.76885986 C-14.56810682 34.78017695 -13.77427259 32.79297093 -12.97705078 30.80712891 C-11.76183894 27.77949605 -10.55764083 24.74767458 -9.35546875 21.71484375 C-8.58658509 19.78359622 -7.81707372 17.85259845 -7.046875 15.921875 C-6.68736755 15.01854431 -6.32786011 14.11521362 -5.9574585 13.18450928 C-4.14663893 8.68067055 -2.25342816 4.30039501 0 0 Z M4 11 C1.69 17.6 -0.62 24.2 -3 31 C1.95 31 6.9 31 12 31 C9.69 24.4 7.38 17.8 5 11 C4.67 11 4.34 11 4 11 Z " fill="#229AB5" transform="translate(484,50)"/>
<path d="M0 0 C3.63 0 7.26 0 11 0 C14.03344616 7.50012607 16.92248985 15.04506237 19.75 22.625 C20.16121094 23.72457031 20.57242188 24.82414062 20.99609375 25.95703125 C21.99840977 28.63764386 22.99969231 31.31863746 24 34 C26.66247721 31.33752279 27.5523686 28.2723791 28.8203125 24.8046875 C29.08383514 24.09724396 29.34735779 23.38980042 29.61886597 22.66091919 C30.45940499 20.40082255 31.29227834 18.1379871 32.125 15.875 C32.69350785 14.34226142 33.26251223 12.8097069 33.83203125 11.27734375 C35.22712479 7.52034082 36.61534994 3.76086377 38 0 C41.63 0 45.26 0 49 0 C46.46809612 9.16006655 43.01372412 17.8721463 39.5 26.6875 C38.91240518 28.17238552 38.32516323 29.65741072 37.73828125 31.14257812 C37.16958858 32.5782509 36.60058876 34.01380206 36.03125 35.44921875 C35.77178589 36.10355392 35.51232178 36.7578891 35.24499512 37.43205261 C33.56242685 41.65177275 31.80418072 45.83136113 30 50 C25.05 50.495 25.05 50.495 20 51 C16.86311731 46.29866067 14.99823064 41.20434729 12.98828125 35.95703125 C12.42864937 34.50981941 12.42864937 34.50981941 11.85771179 33.03337097 C11.0730659 31.00105719 10.29070794 28.96785878 9.51049805 26.93383789 C8.31189961 23.8109357 7.10473906 20.69144272 5.89648438 17.57226562 C5.13490676 15.59655064 4.37382179 13.62064568 3.61328125 11.64453125 C3.06961662 10.23987358 3.06961662 10.23987358 2.51496887 8.80683899 C2.18429916 7.94221542 1.85362946 7.07759186 1.51293945 6.18676758 C1.21998489 5.42463455 0.92703033 4.66250153 0.62519836 3.87727356 C0 2 0 2 0 0 Z " fill="#16284C" transform="translate(172,50)"/>
<path d="M0 0 C4.32603587 2.19063093 5.92213158 4.95191555 7.7109375 9.3046875 C8.05151367 12.46435547 8.05151367 12.46435547 8.00390625 15.796875 C7.9894043 17.59511719 7.9894043 17.59511719 7.97460938 19.4296875 C7.94947266 20.6671875 7.92433594 21.9046875 7.8984375 23.1796875 C7.87813477 25.07074219 7.87813477 25.07074219 7.85742188 27 C7.82217185 30.10200204 7.77289254 33.20312284 7.7109375 36.3046875 C4.23270635 37.46409788 2.25198172 37.01289634 -1.2890625 36.3046875 C-1.2890625 35.3146875 -1.2890625 34.3246875 -1.2890625 33.3046875 C-2.2584375 33.9646875 -3.2278125 34.6246875 -4.2265625 35.3046875 C-8.54850701 37.7681082 -12.41149438 38.06566147 -17.2890625 37.3046875 C-20.95102111 35.71253158 -23.49111152 33.90058946 -25.2890625 30.3046875 C-25.98956031 25.75145171 -25.91939622 22.40193509 -23.6015625 18.3671875 C-19.04954285 14.30727808 -14.94811763 14.06806965 -8.9765625 14.1796875 C-7.72230469 14.19773437 -6.46804688 14.21578125 -5.17578125 14.234375 C-3.74685547 14.26917969 -3.74685547 14.26917969 -2.2890625 14.3046875 C-3.40760836 10.57854597 -3.40760836 10.57854597 -6.2890625 8.3046875 C-8.37144716 8.32804764 -8.37144716 8.32804764 -10.6640625 8.6171875 C-11.82035156 8.73513672 -11.82035156 8.73513672 -13 8.85546875 C-15.38667128 9.32384281 -17.17503996 10.12218631 -19.2890625 11.3046875 C-20.9390625 9.9846875 -22.5890625 8.6646875 -24.2890625 7.3046875 C-23.1255399 3.68483942 -20.94018059 1.8279197 -17.61328125 0.0703125 C-12.03684349 -1.7666317 -5.6074081 -1.70327413 0 0 Z M-15.2890625 22.3046875 C-15.33160606 24.30423496 -15.32987033 26.30510386 -15.2890625 28.3046875 C-14.07316266 29.73624649 -14.07316266 29.73624649 -10.4765625 29.6171875 C-7.37042739 29.57257515 -6.45505287 29.416731 -3.7890625 27.6171875 C-2.04273026 24.92492529 -1.93924038 23.45308656 -2.2890625 20.3046875 C-7.11266439 20.11174342 -10.78552988 20.54721136 -15.2890625 22.3046875 Z " fill="#0E1E41" transform="translate(323.2890625,63.6953125)"/>
<path d="M0 0 C5.32418165 3.11830601 8.54807982 7.19892696 10.51171875 13.08984375 C11.5527725 20.36234783 9.65850626 26.085641 5.51171875 32.08984375 C0.49340681 36.85724009 -5.06385017 37.44597156 -11.69921875 37.3671875 C-17.22424233 36.81778039 -20.26820188 34.2285845 -24.30078125 30.46484375 C-27.72843198 25.97030835 -28.62545725 20.50677314 -28.40234375 14.94921875 C-27.37203787 9.13371446 -23.80074776 4.96560479 -19.48828125 1.08984375 C-14.06069616 -2.45540864 -5.92642745 -2.16775133 0 0 Z M-15.48828125 10.08984375 C-17.63717261 12.91026366 -18.56118442 14.79746945 -18.359375 18.375 C-17.73075546 21.85789205 -17.05861732 24.39276634 -14.80078125 27.15234375 C-11.46360307 28.50525382 -9.05721029 28.52813328 -5.48828125 28.08984375 C-2.09888569 25.9530509 -0.76245568 24.91236705 0.51171875 21.08984375 C0.78373283 17.41765371 0.75594592 14.73632745 -0.55078125 11.27734375 C-5.05145432 6.19593867 -10.22146623 6.25943283 -15.48828125 10.08984375 Z " fill="#1C2D50" transform="translate(407.48828125,63.91015625)"/>
<path d="M0 0 C5.65553033 4.00025316 9.18801453 7.96461705 10.5625 14.8125 C10.71298376 20.36158851 9.64316454 25.13838829 6.5625 29.8125 C1.52916766 34.6269918 -2.33784634 36.8603599 -9.25 37.1875 C-14.39676283 37.05729915 -18.32226697 35.95836703 -22.4375 32.8125 C-27.31803386 27.47062215 -28.80904798 22.62576844 -28.71484375 15.4453125 C-28.12022691 9.80063999 -25.61707131 5.577556 -21.375 1.875 C-15.19198158 -2.46626825 -7.02280092 -2.4260585 0 0 Z M-16.4375 9.8125 C-18.51074138 12.92236207 -18.71142186 13.70358387 -18.6875 17.25 C-18.69265625 18.01183594 -18.6978125 18.77367187 -18.703125 19.55859375 C-18.40829674 22.06029826 -17.74089102 23.66821155 -16.4375 25.8125 C-12.99949608 28.35916957 -9.58643725 28.32201861 -5.4375 27.8125 C-1.88644154 25.26500154 -0.65936383 23.57515693 0.5625 19.375 C0.5625 15.22293888 -0.10632189 13.23156123 -2.4375 9.8125 C-7.8092806 5.78366455 -10.78502996 6.56533636 -16.4375 9.8125 Z " fill="#1B2A4C" transform="translate(247.4375,64.1875)"/>
<path d="M0 0 C6.80535151 5.4260642 11.94114371 13.13645074 14.73046875 21.37890625 C14.35546875 23.69140625 14.35546875 23.69140625 13.73046875 25.37890625 C11.3984375 25.16015625 11.3984375 25.16015625 8.73046875 24.37890625 C7.28125 22.41015625 7.28125 22.41015625 6.04296875 19.87890625 C-0.63369808 8.0299355 -12.07994627 1.16453018 -24.890625 -2.71875 C-40.36323512 -6.36235479 -57.01124009 -5.12042947 -71.26953125 2.37890625 C-74.73117763 4.55237488 -78.00837454 6.91715646 -81.26953125 9.37890625 C-82.06359375 9.96800781 -82.85765625 10.55710937 -83.67578125 11.1640625 C-85.54850119 12.55871133 -87.41283088 13.96304256 -89.26953125 15.37890625 C-83.98118159 3.94190124 -72.45174747 -3.8458657 -61.13671875 -8.58984375 C-39.38014446 -16.41509663 -18.56836175 -13.26311554 0 0 Z " fill="#31BECD" transform="translate(104.26953125,12.62109375)"/>
<path d="M0 0 C3.48395472 -0.56780751 6.53600286 -0.75916338 10 0 C12.99002646 2.60116537 15.10655422 5.52659285 17 9 C17 9.66 17 10.32 17 11 C17.66 11 18.32 11 19 11 C19.226875 10.29875 19.45375 9.5975 19.6875 8.875 C21.29345278 5.35719867 22.75951078 2.20234622 26 0 C29.39195799 -0.503859 32.59791939 -0.35672302 36 0 C34.12696782 5.61909653 30.48684279 9.61420477 26.80078125 14.16015625 C24.75893153 16.7195616 24.75893153 16.7195616 25.23095703 18.94799805 C26.06547141 21.17469436 27.07848375 22.77131167 28.50390625 24.671875 C28.99697266 25.33574219 29.49003906 25.99960938 29.99804688 26.68359375 C30.51431641 27.36550781 31.03058594 28.04742187 31.5625 28.75 C32.08263672 29.44738281 32.60277344 30.14476563 33.13867188 30.86328125 C34.42014181 32.57974556 35.70932798 34.29044431 37 36 C35 38 35 38 31.125 38.375 C28.15335814 38.28917641 27.2273399 38.16418993 24.75 36.375 C19 28.57142857 19 28.57142857 19 26 C16.22485262 28.62097253 13.99054157 31.0149042 11.9375 34.25 C10 37 10 37 8.125 37.875 C5.40979403 38.034718 2.71897598 38.06179491 0 38 C0 33.87792878 0.0981942 33.37056219 2.40625 30.328125 C2.90253906 29.66425781 3.39882813 29.00039062 3.91015625 28.31640625 C4.43480469 27.63449219 4.95945312 26.95257813 5.5 26.25 C6.28697266 25.20392578 6.28697266 25.20392578 7.08984375 24.13671875 C8.38473427 22.41804587 9.69126498 20.70815415 11 19 C8.18364773 13.89068836 5.12616589 9.50455228 1.390625 5.015625 C0 3 0 3 0 0 Z " fill="#17274B" transform="translate(259,63)"/>
<path d="M0 0 C0.721875 0.00257812 1.44375 0.00515625 2.1875 0.0078125 C2.909375 0.00523438 3.63125 0.00265625 4.375 0 C6.1875 0.1328125 6.1875 0.1328125 7.1875 1.1328125 C7.25929964 2.65209288 7.27142007 4.17448732 7.25 5.6953125 C7.24097656 6.52160156 7.23195313 7.34789062 7.22265625 8.19921875 C7.21105469 8.83730469 7.19945312 9.47539063 7.1875 10.1328125 C8.486875 10.1121875 9.78625 10.0915625 11.125 10.0703125 C12.47915633 10.04881796 13.83506083 10.06133051 15.1875 10.1328125 C16.1875 11.1328125 16.1875 11.1328125 16.3125 14.6328125 C16.1875 18.1328125 16.1875 18.1328125 15.1875 19.1328125 C12.5475 19.1328125 9.9075 19.1328125 7.1875 19.1328125 C7.5175 25.4028125 7.8475 31.6728125 8.1875 38.1328125 C10.8275 38.4628125 13.4675 38.7928125 16.1875 39.1328125 C16.5175 41.4428125 16.8475 43.7528125 17.1875 46.1328125 C12.94167853 48.96336014 9.17265163 48.90690437 4.1875 48.1328125 C0.56490096 46.249061 -1.50225631 44.06354356 -2.8125 40.1328125 C-2.89393855 38.50561768 -2.9200302 36.87529531 -2.91015625 35.24609375 C-2.90693359 34.30830078 -2.90371094 33.37050781 -2.90039062 32.40429688 C-2.89201172 31.42783203 -2.88363281 30.45136719 -2.875 29.4453125 C-2.87048828 28.45724609 -2.86597656 27.46917969 -2.86132812 26.45117188 C-2.84954303 24.01165776 -2.83309011 21.57226561 -2.8125 19.1328125 C-4.7925 19.1328125 -6.7725 19.1328125 -8.8125 19.1328125 C-8.91015625 12.98046875 -8.91015625 12.98046875 -8.8125 11.1328125 C-7.8125 10.1328125 -7.8125 10.1328125 -5.25 10.0703125 C-4.445625 10.0909375 -3.64125 10.1115625 -2.8125 10.1328125 C-2.82410156 9.49472656 -2.83570313 8.85664062 -2.84765625 8.19921875 C-2.85667969 7.37292969 -2.86570312 6.54664063 -2.875 5.6953125 C-2.88660156 4.87160156 -2.89820313 4.04789063 -2.91015625 3.19921875 C-2.78580037 0.56784823 -2.63135505 0.19281481 0 0 Z " fill="#283654" transform="translate(428.8125,52.8671875)"/>
<path d="M0 0 C2.97 0 5.94 0 9 0 C9 16.5 9 33 9 50 C7 51 7 51 0 50 C0 33.5 0 17 0 0 Z " fill="#369EB6" transform="translate(517,50)"/>
<path d="M0 0 C1.4540625 0.0309375 1.4540625 0.0309375 2.9375 0.0625 C3.5975 3.0325 4.2575 6.0025 4.9375 9.0625 C3.00203884 10.21177384 1.06405872 11.35680642 -0.875 12.5 C-1.95394531 13.13808594 -3.03289062 13.77617187 -4.14453125 14.43359375 C-7.80250024 16.47559251 -10.41330908 17.18756776 -14.53393555 17.17602539 C-15.88499641 17.17591209 -15.88499641 17.17591209 -17.26335144 17.17579651 C-18.23218765 17.17063522 -19.20102386 17.16547394 -20.19921875 17.16015625 C-21.69108452 17.15803383 -21.69108452 17.15803383 -23.21308899 17.15586853 C-26.39208982 17.15026761 -29.57102043 17.13771496 -32.75 17.125 C-34.90429586 17.11998512 -37.05859282 17.11542219 -39.21289062 17.11132812 C-44.49611774 17.10029788 -49.77930385 17.08355886 -55.0625 17.0625 C-50.4375 12.1875 -50.4375 12.1875 -47.0625 11.0625 C-44.83268427 11.09431319 -42.60332078 11.16238271 -40.375 11.25 C-27.26214248 11.45857353 -15.35322935 7.69810043 -4.0625 1.0625 C-3.0625 0.0625 -3.0625 0.0625 0 0 Z " fill="#0D2F53" transform="translate(109.0625,127.9375)"/>
<path d="M0 0 C3.63 0 7.26 0 11 0 C14.03344616 7.50012607 16.92248985 15.04506237 19.75 22.625 C20.16121094 23.72457031 20.57242188 24.82414062 20.99609375 25.95703125 C21.99840977 28.63764386 22.99969231 31.31863746 24 34 C24.66 34 25.32 34 26 34 C26 35.32 26 36.64 26 38 C22.98968256 38.93423645 22.13349732 39.04449911 19 38 C19 38.66 19 39.32 19 40 C17.02 40.495 17.02 40.495 15 41 C12.85950944 35.48406209 10.723375 29.96646519 8.59130859 24.44726562 C7.86497388 22.5688698 7.13743851 20.69093779 6.40869141 18.81347656 C5.36306871 16.11904201 4.32173661 13.42298386 3.28125 10.7265625 C2.95314331 9.88380768 2.62503662 9.04105286 2.2869873 8.17276001 C1.98667603 7.39210175 1.68636475 6.61144348 1.37695312 5.80712891 C1.11047974 5.11873932 0.84400635 4.43034973 0.56945801 3.72109985 C0 2 0 2 0 0 Z " fill="#202F53" transform="translate(172,50)"/>
<path d="M0 0 C0.66 0 1.32 0 2 0 C2.27972656 1.01578125 2.55945313 2.0315625 2.84765625 3.078125 C7.93048238 20.82472153 16.74553265 35.3929521 33 45 C36.18210956 46.64815005 39.37944772 48.22738652 42.62890625 49.73828125 C45 51 45 51 46 53 C46.04022391 55.3329866 46.04320247 57.66706666 46 60 C43.36 60 40.72 60 38 60 C37.67 59.01 37.34 58.02 37 57 C35.04729068 55.6659578 35.04729068 55.6659578 32.625 54.4375 C17.22763402 45.45387277 6.77482509 31.11313363 2 14 C1.12062156 9.34855088 0.47305103 4.70932893 0 0 Z " fill="#204E6E" transform="translate(0,85)"/>
<path d="M0 0 C0.33 0 0.66 0 1 0 C1 8.91 1 17.82 1 27 C-2.47823115 28.15941038 -4.45895578 27.70820884 -8 27 C-8 26.01 -8 25.02 -8 24 C-8.969375 24.66 -9.93875 25.32 -10.9375 26 C-15.25944451 28.4634207 -19.12243188 28.76097397 -24 28 C-27.66195861 26.40784408 -30.20204902 24.59590196 -32 21 C-32.70049781 16.44676421 -32.63033372 13.09724759 -30.3125 9.0625 C-25.76048035 5.00259058 -21.65905513 4.76338215 -15.6875 4.875 C-14.43324219 4.89304687 -13.17898438 4.91109375 -11.88671875 4.9296875 C-10.45779297 4.96449219 -10.45779297 4.96449219 -9 5 C-8.67 3.68 -8.34 2.36 -8 1 C-8 2.65 -8 4.3 -8 6 C-12.62 6.33 -17.24 6.66 -22 7 C-22 7.66 -22 8.32 -22 9 C-19.00519083 9.8723412 -16.36424089 10.10829766 -13.25 10.0625 C-12.05117188 10.04896484 -12.05117188 10.04896484 -10.828125 10.03515625 C-10.22484375 10.02355469 -9.6215625 10.01195313 -9 10 C-8.34 11.65 -7.68 13.3 -7 15 C-6.01 15 -5.02 15 -4 15 C-2.39644899 18.50776784 -1.77963136 21.14354879 -2 25 C-3.65 25.33 -5.3 25.66 -7 26 C-4.69 26 -2.38 26 0 26 C0 17.42 0 8.84 0 0 Z M-22 13 C-22.04254356 14.99954746 -22.04080783 17.00041636 -22 19 C-20.78410016 20.43155899 -20.78410016 20.43155899 -17.1875 20.3125 C-14.08136489 20.26788765 -13.16599037 20.1120435 -10.5 18.3125 C-8.75366776 15.62023779 -8.65017788 14.14839906 -9 11 C-13.82360189 10.80705592 -17.49646738 11.24252386 -22 13 Z " fill="#273656" transform="translate(330,73)"/>
<path d="M0 0 C6.23013178 0.10326185 10.3162271 1.12575421 14.875 5.4375 C18.80404349 10.47473524 20.30106548 14.59349092 20.21875 20.890625 C19.5119387 26.12745421 17.17104655 31.25625577 13.3125 34.921875 C9.13240137 37.80614305 5.41458193 38.59123418 0.4375 38.625 C-0.98369141 38.64626953 -0.98369141 38.64626953 -2.43359375 38.66796875 C-5.17001644 38.43364518 -6.78928123 37.83451383 -9.125 36.4375 C-6.26322943 35.00661472 -4.19124227 35.83758303 -1.125 36.4375 C-0.7125 35.6125 -0.3 34.7875 0.125 33.9375 C0.7025 33.1125 1.28 32.2875 1.875 31.4375 C3.195 31.4375 4.515 31.4375 5.875 31.4375 C4.74965895 30.08131501 4.74965895 30.08131501 1.8125 30.375 C0.843125 30.395625 -0.12625 30.41625 -1.125 30.4375 C-1.125 30.1075 -1.125 29.7775 -1.125 29.4375 C-0.031875 29.210625 1.06125 28.98375 2.1875 28.75 C5.90129734 27.76253116 5.90129734 27.76253116 7.8125 25.25 C9.50391468 20.77272585 9.37846877 16.94790632 7.875 12.4375 C8.25 10.5 8.25 10.5 8.875 8.4375 C9.060625 7.695 9.24625 6.9525 9.4375 6.1875 C9.581875 5.61 9.72625 5.0325 9.875 4.4375 C9.215 4.4375 8.555 4.4375 7.875 4.4375 C7.875 3.7775 7.875 3.1175 7.875 2.4375 C6.885 2.7675 5.895 3.0975 4.875 3.4375 C4.875 2.7775 4.875 2.1175 4.875 1.4375 C-1.56 1.9325 -1.56 1.9325 -8.125 2.4375 C-5.406484 -0.281016 -3.79705652 0.07488395 0 0 Z " fill="#223153" transform="translate(398.125,62.5625)"/>
<path d="M0 0 C0.99 0 1.98 0 3 0 C4.485 7.92 4.485 7.92 6 16 C6.66 15.01 7.32 14.02 8 13 C8.99 13 9.98 13 11 13 C11.495 14.98 11.495 14.98 12 17 C15.96 17 19.92 17 24 17 C24 17.99 24 18.98 24 20 C19.38 20.33 14.76 20.66 10 21 C8.68 24.3 7.36 27.6 6 31 C5.01 31 4.02 31 3 31 C1.515 23.575 1.515 23.575 0 16 C-0.99 18.97 -1.98 21.94 -3 25 C-3.99 24.67 -4.98 24.34 -6 24 C-6.66 22.68 -7.32 21.36 -8 20 C-14.27 20 -20.54 20 -27 20 C-26.505 18.515 -26.505 18.515 -26 17 C-24.96359375 16.97421875 -23.9271875 16.9484375 -22.859375 16.921875 C-21.48954199 16.86558049 -20.11975195 16.80823345 -18.75 16.75 C-18.06808594 16.73582031 -17.38617188 16.72164062 -16.68359375 16.70703125 C-13.12887794 16.53447223 -11.29786441 16.2454103 -8.515625 13.953125 C-8.01546875 13.30859375 -7.5153125 12.6640625 -7 12 C-6.34 12.66 -5.68 13.32 -5 14 C-4.72285156 13.07316406 -4.44570312 12.14632812 -4.16015625 11.19140625 C-3.79792969 9.99386719 -3.43570313 8.79632813 -3.0625 7.5625 C-2.70285156 6.36753906 -2.34320313 5.17257813 -1.97265625 3.94140625 C-1 1 -1 1 0 0 Z " fill="#3A4D74" transform="translate(76,94)"/>
<path d="M0 0 C4.67774777 3.69573751 6.22881106 8.73864503 8.3125 14.125 C8.68439453 15.04410156 9.05628906 15.96320313 9.43945312 16.91015625 C11.43343966 21.96752991 11.43343966 21.96752991 12 24 C11.67 24.66 11.34 25.32 11 26 C8.03 25.67 5.06 25.34 2 25 C1.3291288 23.3767313 0.66342971 21.75132422 0 20.125 C-0.37125 19.22007813 -0.7425 18.31515625 -1.125 17.3828125 C-2 15 -2 15 -2 13 C-9.26 13 -16.52 13 -24 13 C-22.68 12.67 -21.36 12.34 -20 12 C-20 10.68 -20 9.36 -20 8 C-20 7.67 -20 7.34 -20 7 C-14.72 7 -9.44 7 -4 7 C-4.33 5.68 -4.66 4.36 -5 3 C-3.35 2.67 -1.7 2.34 0 2 C0 1.34 0 0.68 0 0 Z " fill="#1E8EA9" transform="translate(501,75)"/>
<path d="M0 0 C0.81598663 0.00041794 1.63197327 0.00083588 2.47268677 0.00126648 C4.19240257 0.00961741 5.91211058 0.03499056 7.63134766 0.07641602 C10.24393948 0.13640023 12.85166344 0.13799921 15.46484375 0.13085938 C17.14326456 0.14627584 18.82165858 0.16504703 20.5 0.1875 C21.65663651 0.18947136 21.65663651 0.18947136 22.8366394 0.19148254 C28.59340484 0.36470749 32.38041844 1.97771117 37.3828125 4.82421875 C36.7228125 5.15421875 36.0628125 5.48421875 35.3828125 5.82421875 C34.2690625 5.32921875 34.2690625 5.32921875 33.1328125 4.82421875 C29.73410338 3.58832452 27.92443669 4.21124533 24.3828125 4.82421875 C22.92055553 4.69647511 21.46162627 4.52655366 20.0078125 4.32421875 C15.07086894 3.67264244 9.94135382 3.54494809 5.3828125 5.82421875 C3.39453125 5.44921875 3.39453125 5.44921875 1.0703125 4.82421875 C-2.49972348 3.96050037 -5.04109954 3.67064199 -8.6171875 4.82421875 C-9.55142395 7.83453619 -9.66168661 8.69072143 -8.6171875 11.82421875 C-6.9671875 11.82421875 -5.3171875 11.82421875 -3.6171875 11.82421875 C-3.6171875 11.16421875 -3.6171875 10.50421875 -3.6171875 9.82421875 C-2.9571875 9.82421875 -2.2971875 9.82421875 -1.6171875 9.82421875 C-1.6171875 10.48421875 -1.6171875 11.14421875 -1.6171875 11.82421875 C1.27892794 11.68287148 4.1746206 11.53630345 7.0703125 11.38671875 C7.88693359 11.34740234 8.70355469 11.30808594 9.54492188 11.26757812 C13.57937061 11.05523872 17.44028559 10.77973953 21.3828125 9.82421875 C22.7028125 11.47421875 24.0228125 13.12421875 25.3828125 14.82421875 C21.43946951 14.82421875 17.50029536 14.7084064 13.55859375 14.60546875 C12.69719284 14.58327271 11.83579193 14.56107666 10.94828796 14.53820801 C8.19728668 14.46723897 5.4462996 14.39573529 2.6953125 14.32421875 C0.83007903 14.27600645 -1.03515533 14.22782894 -2.90039062 14.1796875 C-7.47266679 14.06160156 -12.04493029 13.94303613 -16.6171875 13.82421875 C-14.31454561 4.38338698 -9.64986703 -0.29356187 0 0 Z " fill="#53C3D0" transform="translate(98.6171875,41.17578125)"/>
<path d="M0 0 C3.04386724 -0.08226668 5.07175348 0.02391783 8 1 C8.07347656 1.99580078 8.07347656 1.99580078 8.1484375 3.01171875 C8.55747764 9.78908352 8.55747764 9.78908352 11 16 C13.93868528 17.02046654 16.65909366 17.1079545 19.75 17.0625 C20.94882813 17.04896484 20.94882813 17.04896484 22.171875 17.03515625 C22.77515625 17.02355469 23.3784375 17.01195313 24 17 C23.67 17.99 23.34 18.98 23 20 C20.69 20 18.38 20 16 20 C16 20.99 16 21.98 16 23 C12.94152152 23.54372951 10.11227195 24 7 24 C2.58599895 20.24809911 -0.7042115 16.44190253 -1.21484375 10.5 C-1.26454906 6.70030484 -1.20870566 3.62611698 0 0 Z " fill="#18294D" transform="translate(220,74)"/>
<path d="M0 0 C1.65 0 3.3 0 5 0 C5 1.98 5 3.96 5 6 C7.31 6 9.62 6 12 6 C12 7.98 12 9.96 12 12 C10.02 12 8.04 12 6 12 C6 14.31 6 16.62 6 19 C3.625 19.625 3.625 19.625 1 20 C-1 18 -1 18 -1.125 14.875 C-1.08375 13.92625 -1.0425 12.9775 -1 12 C-2.98 12 -4.96 12 -7 12 C-7.38218767 10.34385343 -7.71395102 8.67542976 -8 7 C-7 6 -7 6 -3.4375 5.9375 C-2.303125 5.958125 -1.16875 5.97875 0 6 C0 4.02 0 2.04 0 0 Z " fill="#2F4267" transform="translate(114,115)"/>
<path d="M0 0 C0.495 1.485 0.495 1.485 1 3 C5.29 3 9.58 3 14 3 C14 3.33 14 3.66 14 4 C12.69546875 4.17015625 11.3909375 4.3403125 10.046875 4.515625 C-8.79652391 7.07837057 -22.88399958 11.69293944 -37 25 C-37 20.21797188 -33.77721936 17.95011672 -30.625 14.56640625 C-24.29746076 8.38010673 -9.40704603 -3.76281841 0 0 Z " fill="#40C3D2" transform="translate(53,3)"/>
<path d="M0 0 C0.66 0 1.32 0 2 0 C2.27972656 1.01578125 2.55945313 2.0315625 2.84765625 3.078125 C6.84122699 17.02160579 12.7831247 27.52828201 23 38 C22.690625 38.598125 22.38125 39.19625 22.0625 39.8125 C20.89790296 42.08956772 20.89790296 42.08956772 20 45 C7.93428394 32.85887321 0.77310226 17.12421501 0 0 Z " fill="#2A5F7C" transform="translate(0,85)"/>
<path d="M0 0 C0.66 0.33 1.32 0.66 2 1 C1.67 1.66 1.34 2.32 1 3 C-1.32156597 3.40729228 -3.6568787 3.74438677 -6 4 C-6 4.66 -6 5.32 -6 6 C-6.62648437 6.18175781 -7.25296875 6.36351562 -7.8984375 6.55078125 C-8.71570313 6.80214844 -9.53296875 7.05351562 -10.375 7.3125 C-11.18710938 7.55613281 -11.99921875 7.79976562 -12.8359375 8.05078125 C-15.33184629 8.91368185 -15.33184629 8.91368185 -17 12 C-19.70556641 12.34057617 -19.70556641 12.34057617 -23.1015625 12.29296875 C-24.91914062 12.2784668 -24.91914062 12.2784668 -26.7734375 12.26367188 C-28.04445313 12.23853516 -29.31546875 12.21339844 -30.625 12.1875 C-31.90375 12.17396484 -33.1825 12.16042969 -34.5 12.14648438 C-37.66708282 12.11103196 -40.83333541 12.06161441 -44 12 C-39.375 7.125 -39.375 7.125 -36 6 C-33.77018427 6.03181319 -31.54082078 6.09988271 -29.3125 6.1875 C-19.97575448 6.37860971 -10.77963935 4.43604634 -2.1640625 0.8046875 C-1.44992188 0.53914062 -0.73578125 0.27359375 0 0 Z " fill="#274566" transform="translate(98,133)"/>
<path d="M0 0 C0.66 0 1.32 0 2 0 C2 0.66 2 1.32 2 2 C3.5778125 1.5978125 3.5778125 1.5978125 5.1875 1.1875 C9 1 9 1 11.625 2.8125 C14.66985098 6.89901052 17.34579978 11.15555649 19 16 C18.6328125 18.30859375 18.6328125 18.30859375 18 20 C15.6796875 19.7890625 15.6796875 19.7890625 13 19 C11.4453125 16.9609375 11.4453125 16.9609375 10.125 14.375 C7.68879104 9.94668268 5.06461907 6.74649683 1.3203125 3.375 C0 2 0 2 0 0 Z " fill="#2CA5BC" transform="translate(100,18)"/>
<path d="M0 0 C0.33 0 0.66 0 1 0 C1 8.91 1 17.82 1 27 C-2.47823115 28.15941038 -4.45895578 27.70820884 -8 27 C-8 26.01 -8 25.02 -8 24 C-9.32 24.99 -10.64 25.98 -12 27 C-12.66 26.67 -13.32 26.34 -14 26 C-13.67 25.34 -13.34 24.68 -13 24 C-12.34 24 -11.68 24 -11 24 C-11 23.01 -11 22.02 -11 21 C-11.78246094 21.08378906 -12.56492187 21.16757813 -13.37109375 21.25390625 C-14.38300781 21.35574219 -15.39492188 21.45757812 -16.4375 21.5625 C-17.44683594 21.66691406 -18.45617187 21.77132812 -19.49609375 21.87890625 C-20.32238281 21.91886719 -21.14867187 21.95882812 -22 22 C-23 21 -23 21 -23.0625 17.4375 C-23.041875 16.303125 -23.02125 15.16875 -23 14 C-22.67 14 -22.34 14 -22 14 C-21.67 15.65 -21.34 17.3 -21 19 C-15.78493186 19.47208885 -15.78493186 19.47208885 -11.0625 17.8125 C-9.75087013 15.57501375 -9.34552388 13.55687669 -9 11 C-8.34 12.32 -7.68 13.64 -7 15 C-6.01 15 -5.02 15 -4 15 C-2.39644899 18.50776784 -1.77963136 21.14354879 -2 25 C-3.65 25.33 -5.3 25.66 -7 26 C-4.69 26 -2.38 26 0 26 C0 17.42 0 8.84 0 0 Z " fill="#3D4D6D" transform="translate(330,73)"/>
<path d="M0 0 C0.66 2.97 1.32 5.94 2 9 C-5.26153846 14.04615385 -5.26153846 14.04615385 -9 13.8125 C-9.66 13.544375 -10.32 13.27625 -11 13 C-11.125 7.25 -11.125 7.25 -10 5 C-10.66 4.67 -11.32 4.34 -12 4 C-7.81413519 0.81076967 -5.29441695 -0.50423019 0 0 Z " fill="#26476B" transform="translate(112,128)"/>
<path d="M0 0 C1.5 1.375 1.5 1.375 3 3 C3 3.66 3 4.32 3 5 C4.65 5 6.3 5 8 5 C8 4.34 8 3.68 8 3 C8.66 3 9.32 3 10 3 C10 3.66 10 4.32 10 5 C12.89611544 4.85865273 15.7918081 4.7120847 18.6875 4.5625 C19.50412109 4.52318359 20.32074219 4.48386719 21.16210938 4.44335938 C25.19655811 4.23101997 29.05747309 3.95552078 33 3 C34.32 4.65 35.64 6.3 37 8 C33.05665701 8 29.11748286 7.88418765 25.17578125 7.78125 C24.31438034 7.75905396 23.45297943 7.73685791 22.56547546 7.71398926 C19.81447418 7.64302022 17.0634871 7.57151654 14.3125 7.5 C12.44726653 7.4517877 10.58203217 7.40361019 8.71679688 7.35546875 C4.14452071 7.23738281 -0.42774279 7.11881738 -5 7 C-4.6875 5.0625 -4.6875 5.0625 -4 3 C-3.01 2.67 -2.02 2.34 -1 2 C-0.67 1.34 -0.34 0.68 0 0 Z " fill="#51ADC1" transform="translate(87,48)"/>
<path d="M0 0 C0.66 1.32 1.32 2.64 2 4 C0.02 6.64 -1.96 9.28 -4 12 C0.17908064 14.08954032 0.80410573 14.16552619 5 13 C4.4409112 16.24271506 3.5867822 17.93057424 1 20 C0.34 20 -0.32 20 -1 20 C-1.33 18.68 -1.66 17.36 -2 16 C-4.64 16 -7.28 16 -10 16 C-10 14.02 -10 12.04 -10 10 C-11.65 10 -13.3 10 -15 10 C-15 11.98 -15 13.96 -15 16 C-16.98 16 -18.96 16 -21 16 C-21 15.67 -21 15.34 -21 15 C-19.35 15 -17.7 15 -16 15 C-16 13.02 -16 11.04 -16 9 C-11.25 7.875 -11.25 7.875 -9 9 C-9 10.98 -9 12.96 -9 15 C-8.67 14.67 -8.34 14.34 -8 14 C-8.103125 13.2575 -8.20625 12.515 -8.3125 11.75 C-8 9 -8 9 -5.125 6.4375 C-4.09375 5.633125 -3.0625 4.82875 -2 4 C-0.62745412 1.85019503 -0.62745412 1.85019503 0 0 Z " fill="#697995" transform="translate(129,105)"/>
<path d="M0 0 C7.6328125 -0.2109375 7.6328125 -0.2109375 10.9375 1.6875 C13.29084615 4.32610023 14 5.4720008 14 9 C12.74512795 12.55547081 11.92511024 14.46440986 8.625 16.375 C5.95395219 17.01096376 3.73374818 17.22781235 1 17 C0 16 0 16 -0.09765625 12.40234375 C-0.0909822 10.91403133 -0.07902183 9.42573568 -0.0625 7.9375 C-0.05798828 7.17888672 -0.05347656 6.42027344 -0.04882812 5.63867188 C-0.0370068 3.75908129 -0.01907078 1.87953101 0 0 Z M2 3 C2 6.63 2 10.26 2 14 C6.13108746 14.30977972 6.13108746 14.30977972 9.9375 12.9375 C11.64787795 9.81857551 10.80513863 7.34442199 10 4 C7.29120665 2.64560332 4.99066732 2.93498549 2 3 Z " fill="#576381" transform="translate(281,119)"/>
<path d="M0 0 C2 2 2 2 2.046875 4.53125 C1.94890625 5.5109375 1.8509375 6.490625 1.75 7.5 C1.66234375 8.4796875 1.5746875 9.459375 1.484375 10.46875 C1 13 1 13 -1 15 C-1.40047444 17.32275177 -1.7397104 19.65739357 -2 22 C-2.66 22 -3.32 22 -4 22 C-4 22.66 -4 23.32 -4 24 C-5.60407328 24.02708567 -7.2082785 24.04643483 -8.8125 24.0625 C-10.15248047 24.07990234 -10.15248047 24.07990234 -11.51953125 24.09765625 C-14 24 -14 24 -17 23 C-17.33 22.01 -17.66 21.02 -18 20 C-15.69 20 -13.38 20 -11 20 C-11 19.01 -11 18.02 -11 17 C-8.69 17 -6.38 17 -4 17 C-1.59810851 11.68152599 0 5.85031079 0 0 Z " fill="#213154" transform="translate(247,77)"/>
<path d="M0 0 C0.99 0.66 1.98 1.32 3 2 C3.66 1.34 4.32 0.68 5 0 C5 1.65 5 3.3 5 5 C4.01 5 3.02 5 2 5 C2 6.32 2 7.64 2 9 C2.99 9.33 3.98 9.66 5 10 C5 10.99 5 11.98 5 13 C4.01 12.67 3.02 12.34 2 12 C1.34 10.68 0.68 9.36 0 8 C-6.27 8 -12.54 8 -19 8 C-18.67 7.01 -18.34 6.02 -18 5 C-16.95199219 4.97421875 -15.90398438 4.9484375 -14.82421875 4.921875 C-13.44527098 4.86559142 -12.06636635 4.80824412 -10.6875 4.75 C-9.99720703 4.73582031 -9.30691406 4.72164063 -8.59570312 4.70703125 C-4.31566483 4.50142021 -4.31566483 4.50142021 -1.01953125 1.953125 C-0.51486328 0.98632812 -0.51486328 0.98632812 0 0 Z " fill="#4F5E7F" transform="translate(68,106)"/>
<path d="M0 0 C0.66 0 1.32 0 2 0 C2.33 1.98 2.66 3.96 3 6 C5.31 6.33 7.62 6.66 10 7 C10 4.69 10 2.38 10 0 C10.66 0 11.32 0 12 0 C13.09506492 3.28519475 13.09960608 5.73663415 13.0625 9.1875 C13.05347656 10.27417969 13.04445313 11.36085937 13.03515625 12.48046875 C13.02355469 13.31191406 13.01195312 14.14335937 13 15 C12.01 15.33 11.02 15.66 10 16 C10 14.02 10 12.04 10 10 C7.69 10 5.38 10 3 10 C3 11.65 3 13.3 3 15 C2.01 15.33 1.02 15.66 0 16 C0 10.72 0 5.44 0 0 Z " fill="#646E8B" transform="translate(384,119)"/>
<path d="M0 0 C3.07303659 1.0506108 3.91187737 1.83674122 5.484375 4.75 C5.90203125 5.8225 6.3196875 6.895 6.75 8 C7.17796875 9.0725 7.6059375 10.145 8.046875 11.25 C9 14 9 14 9 16 C8.01 16 7.02 16 6 16 C5.67 14.68 5.34 13.36 5 12 C4.1028125 12.2784375 4.1028125 12.2784375 3.1875 12.5625 C1 13 1 13 -2 12 C-2.33 13.32 -2.66 14.64 -3 16 C-3.99 16 -4.98 16 -6 16 C-4.25192871 10.53262809 -2.34205919 5.24175152 0 0 Z M1 4 C0.34 5.98 -0.32 7.96 -1 10 C0.65 10 2.3 10 4 10 C3.34 8.02 2.68 6.04 2 4 C1.67 4 1.34 4 1 4 Z " fill="#5F6A86" transform="translate(185,119)"/>
<path d="M0 0 C0.66 0 1.32 0 2 0 C2 1.65 2 3.3 2 5 C2.5775 4.7525 3.155 4.505 3.75 4.25 C6 4 6 4 8.25 5.4375 C10.761264 9.114708 10.29296638 11.60550433 10 16 C9.01 16 8.02 16 7 16 C7 13.03 7 10.06 7 7 C5.68 7.33 4.36 7.66 3 8 C2.67 10.64 2.34 13.28 2 16 C1.01 16 0.02 16 -1 16 C-1.02685095 13.52076199 -1.04676547 11.0418116 -1.0625 8.5625 C-1.07506836 7.50192383 -1.07506836 7.50192383 -1.08789062 6.41992188 C-1.09653588 4.61306441 -1.05220011 2.80612397 -1 1 C-0.67 0.67 -0.34 0.34 0 0 Z " fill="#78809A" transform="translate(444,119)"/>
<path d="M0 0 C0.66 0 1.32 0 2 0 C2.31453125 1.07378906 2.6290625 2.14757812 2.953125 3.25390625 C3.38496401 4.69024034 3.81728132 6.12643068 4.25 7.5625 C4.45496094 8.26697266 4.65992188 8.97144531 4.87109375 9.69726562 C5.97792039 13.33637744 7.19401547 16.49988641 9.1875 19.75 C11.70123853 24.25739322 11.02827104 26.11571254 10 31 C2.83522663 22.26858522 1.09480268 10.89900575 0 0 Z " fill="#477A97" transform="translate(0,85)"/>
<path d="M0 0 C0.8125 2.625 0.8125 2.625 1 5 C-1.31 5.66 -3.62 6.32 -6 7 C-4.02 7 -2.04 7 0 7 C-0.66 8.32 -1.32 9.64 -2 11 C-4.60623142 10.64780657 -6.60789115 10.23526531 -8.875 8.875 C-10 7 -10 7 -9.9375 3.4375 C-9 0 -9 0 -7.25 -1.5625 C-4.14016365 -2.1671904 -2.67825315 -1.66486007 0 0 Z M-6 1 C-6.33 1.66 -6.66 2.32 -7 3 C-5.35 3 -3.7 3 -2 3 C-2.33 2.34 -2.66 1.68 -3 1 C-3.99 1 -4.98 1 -6 1 Z " fill="#6F7895" transform="translate(502,125)"/>
<path d="M0 0 C1.23556641 0.01740234 1.23556641 0.01740234 2.49609375 0.03515625 C3.32238281 0.04417969 4.14867187 0.05320312 5 0.0625 C5.63808594 0.07410156 6.27617187 0.08570312 6.93359375 0.09765625 C6.93359375 1.08765625 6.93359375 2.07765625 6.93359375 3.09765625 C4.62359375 3.09765625 2.31359375 3.09765625 -0.06640625 3.09765625 C-0.06640625 4.41765625 -0.06640625 5.73765625 -0.06640625 7.09765625 C1.91359375 7.09765625 3.89359375 7.09765625 5.93359375 7.09765625 C5.93359375 8.08765625 5.93359375 9.07765625 5.93359375 10.09765625 C3.95359375 10.09765625 1.97359375 10.09765625 -0.06640625 10.09765625 C-0.06640625 12.07765625 -0.06640625 14.05765625 -0.06640625 16.09765625 C-1.05640625 16.09765625 -2.04640625 16.09765625 -3.06640625 16.09765625 C-3.0932572 13.61841824 -3.11317172 11.13946785 -3.12890625 8.66015625 C-3.14147461 7.59958008 -3.14147461 7.59958008 -3.15429688 6.51757812 C-3.16294213 4.71072066 -3.11860636 2.90378022 -3.06640625 1.09765625 C-2.06640625 0.09765625 -2.06640625 0.09765625 0 0 Z " fill="#596382" transform="translate(215.06640625,118.90234375)"/>
<path d="M0 0 C4.55555556 1.55555556 4.55555556 1.55555556 6 3 C6.07179964 4.51928038 6.08392007 6.04167482 6.0625 7.5625 C6.05347656 8.38878906 6.04445313 9.21507812 6.03515625 10.06640625 C6.02355469 10.70449219 6.01195312 11.34257812 6 12 C-0.625 13.25 -0.625 13.25 -4 11 C-3.8125 8.625 -3.8125 8.625 -3 6 C-0.4375 4.6875 -0.4375 4.6875 2 4 C0.35 4 -1.3 4 -3 4 C-2.67 3.01 -2.34 2.02 -2 1 C-1.34 0.67 -0.68 0.34 0 0 Z M2 7 C1.01 7.33 0.02 7.66 -1 8 C-1 8.66 -1 9.32 -1 10 C0.32 9.67 1.64 9.34 3 9 C2.67 8.34 2.34 7.68 2 7 Z " fill="#7A84A0" transform="translate(474,123)"/>
<path d="M0 0 C1.42258812 3.82320557 2.24042276 6.91281305 2 11 C-1.32534757 12.10844919 -3.62182575 11.84454356 -7 11 C-7.625 8.625 -7.625 8.625 -8 6 C-5.8614515 3.8614515 -4.86724686 3.57344937 -2 3 C-3.65 3 -5.3 3 -7 3 C-7 2.01 -7 1.02 -7 0 C-4.3333581 -1.33332095 -2.83319697 -0.67102033 0 0 Z M-6 7 C-6 7.66 -6 8.32 -6 9 C-4.35 8.67 -2.7 8.34 -1 8 C-1 7.67 -1 7.34 -1 7 C-2.65 7 -4.3 7 -6 7 Z " fill="#737E9A" transform="translate(422,124)"/>
<path d="M0 0 C0.99 0 1.98 0 3 0 C3.33 2.64 3.66 5.28 4 8 C5.65 6.68 7.3 5.36 9 4 C9 7.10551666 8.4606285 8.35261084 7 11 C7.99 11.99 8.98 12.98 10 14 C9.67 14.99 9.34 15.98 9 17 C7.02 15.35 5.04 13.7 3 12 C3 13.32 3 14.64 3 16 C2.01 16 1.02 16 0 16 C0 10.72 0 5.44 0 0 Z " fill="#6A728F" transform="translate(323,119)"/>
<path d="M0 0 C2.3125 1.5 2.3125 1.5 3.125 4.125 C3.186875 4.90875 3.24875 5.6925 3.3125 6.5 C2.52875 6.644375 1.745 6.78875 0.9375 6.9375 C-1.65171018 7.37798925 -1.65171018 7.37798925 -3.6875 8.5 C-1.3775 8.5 0.9325 8.5 3.3125 8.5 C2.9825 9.49 2.6525 10.48 2.3125 11.5 C0.125 12.3125 0.125 12.3125 -2.6875 12.5 C-5.5625 10.375 -5.5625 10.375 -7.6875 7.5 C-7.766136 4.19728797 -7.1393817 3.0002976 -4.9375 0.5625 C-2.6875 -0.5 -2.6875 -0.5 0 0 Z M-3.6875 2.5 C-4.0175 3.16 -4.3475 3.82 -4.6875 4.5 C-2.7075 4.5 -0.7275 4.5 1.3125 4.5 C0.9825 3.84 0.6525 3.18 0.3125 2.5 C-1.0075 2.5 -2.3275 2.5 -3.6875 2.5 Z " fill="#676F8D" transform="translate(304.6875,123.5)"/>
<path d="M0 0 C2 2 2 2 2.375 4.375 C2 7 2 7 0.375 9.375 C-2 11 -2 11 -5.125 10.9375 C-8 10 -8 10 -10 7 C-9.875 3.4375 -9.875 3.4375 -9 0 C-5.79489724 -2.86169889 -3.57109425 -1.87952329 0 0 Z M-6 1 C-7.29633621 2.06645115 -7.29633621 2.06645115 -7.0625 4.5625 C-7.041875 5.366875 -7.02125 6.17125 -7 7 C-5.34385343 7.38218767 -3.67542976 7.71395102 -2 8 C-0.70366379 6.93354885 -0.70366379 6.93354885 -0.9375 4.4375 C-0.958125 3.633125 -0.97875 2.82875 -1 2 C-2.65614657 1.61781233 -4.32457024 1.28604898 -6 1 Z " fill="#697494" transform="translate(244,125)"/>
<path d="M0 0 C2.4375 0.6875 2.4375 0.6875 5 2 C5.8125 4.625 5.8125 4.625 6 7 C3.69 7.33 1.38 7.66 -1 8 C1.07553648 8.5534764 2.84365964 9 5 9 C4.67 9.99 4.34 10.98 4 12 C1.75 12.75 1.75 12.75 -1 13 C-3.76705793 11.05558091 -4.81752464 9.81100158 -5.5625 6.5 C-4.77346174 2.99316327 -2.90241012 1.95912683 0 0 Z M-1 3 C-1.33 3.66 -1.66 4.32 -2 5 C-0.35 5 1.3 5 3 5 C3 4.34 3 3.68 3 3 C1.68 3 0.36 3 -1 3 Z " fill="#636C8B" transform="translate(405,123)"/>
<path d="M0 0 C4.62 0 9.24 0 14 0 C13.34 1.32 12.68 2.64 12 4 C14.31 4.33 16.62 4.66 19 5 C19 5.33 19 5.66 19 6 C11.41 6 3.82 6 -4 6 C-2.68 5.67 -1.36 5.34 0 5 C0 3.68 0 2.36 0 1 C0 0.67 0 0.34 0 0 Z " fill="#06829E" transform="translate(481,82)"/>
<path d="M0 0 C0.33 0 0.66 0 1 0 C1 12.87 1 25.74 1 39 C-0.98 39 -2.96 39 -5 39 C-5 34.05 -5 29.1 -5 24 C-4.67 24 -4.34 24 -4 24 C-3.93941406 24.71027344 -3.87882813 25.42054687 -3.81640625 26.15234375 C-3.73261719 27.07144531 -3.64882813 27.99054688 -3.5625 28.9375 C-3.48128906 29.85402344 -3.40007813 30.77054688 -3.31640625 31.71484375 C-3.23955024 33.96159732 -3.23955024 33.96159732 -2 35 C-0.91165825 27.68341683 -0.67542038 20.38723272 -0.4375 13 C-0.37272461 11.12248047 -0.37272461 11.12248047 -0.30664062 9.20703125 C-0.20121983 6.13811477 -0.09909658 3.06912611 0 0 Z " fill="#007594" transform="translate(524,60)"/>
<path d="M0 0 C2.02045442 0.60183749 4.02111039 1.27306096 6 2 C7.4783226 4.95664519 7.06032783 7.74229737 7 11 C4.36 11 1.72 11 -1 11 C-1.33 10.01 -1.66 9.02 -2 8 C-2.66 7.34 -3.32 6.68 -4 6 C-2.68 5.34 -1.36 4.68 0 4 C0 2.68 0 1.36 0 0 Z " fill="#476785" transform="translate(39,134)"/>
<path d="M0 0 C1.81325551 0.11351517 3.62563357 0.24112961 5.4375 0.375 C6.95150391 0.47941406 6.95150391 0.47941406 8.49609375 0.5859375 C9.73552734 0.79089844 9.73552734 0.79089844 11 1 C11.33 1.66 11.66 2.32 12 3 C11.071875 3.1546875 11.071875 3.1546875 10.125 3.3125 C7.63473516 3.87525373 7.63473516 3.87525373 6 7 C6.99 7.66 7.98 8.32 9 9 C3.73946963 9.31563182 0.55426184 8.66590937 -4 6 C-2.68 4.02 -1.36 2.04 0 0 Z " fill="#0C1A3B" transform="translate(392,91)"/>
<path d="M0 0 C1.3125 3.125 1.3125 3.125 2 6 C-0.1875 8.5625 -0.1875 8.5625 -3 11 C-5.6875 11 -5.6875 11 -8 10 C-10 7 -10 7 -9.875 3.4375 C-9 0 -9 0 -7.25 -1.5625 C-4.09599638 -2.17577848 -2.71289174 -1.71340531 0 0 Z M-6 1 C-6.66 1.66 -7.32 2.32 -8 3 C-7.67958603 5.60280568 -7.67958603 5.60280568 -7 8 C-5.33388095 8.042721 -3.66617115 8.04063832 -2 8 C-0.70366379 6.93354885 -0.70366379 6.93354885 -0.9375 4.4375 C-0.958125 3.633125 -0.97875 2.82875 -1 2 C-3.39719432 1.32041397 -3.39719432 1.32041397 -6 1 Z " fill="#6A7391" transform="translate(362,125)"/>
<path d="M0 0 C0.763125 0.20625 1.52625 0.4125 2.3125 0.625 C2.3125 1.615 2.3125 2.605 2.3125 3.625 C0.6625 3.295 -0.9875 2.965 -2.6875 2.625 C-2.6875 3.285 -2.6875 3.945 -2.6875 4.625 C-1.0375 4.955 0.6125 5.285 2.3125 5.625 C2.6425 7.275 2.9725 8.925 3.3125 10.625 C0.3125 12.625 0.3125 12.625 -2.375 12.25 C-3.138125 12.04375 -3.90125 11.8375 -4.6875 11.625 C-5.0175 10.635 -5.3475 9.645 -5.6875 8.625 C-2.7175 9.12 -2.7175 9.12 0.3125 9.625 C0.3125 8.965 0.3125 8.305 0.3125 7.625 C-1.3375 7.295 -2.9875 6.965 -4.6875 6.625 C-5.0175 4.975 -5.3475 3.325 -5.6875 1.625 C-2.6875 -0.375 -2.6875 -0.375 0 0 Z " fill="#707996" transform="translate(316.6875,123.375)"/>
<path d="M0 0 C0 3.3 0 6.6 0 10 C-0.66 10 -1.32 10 -2 10 C-2.33 7.36 -2.66 4.72 -3 2 C-3.99 2 -4.98 2 -6 2 C-6.33 4.64 -6.66 7.28 -7 10 C-7.99 10 -8.98 10 -10 10 C-10 6.37 -10 2.74 -10 -1 C-5.07577115 -1.98484577 -4.18645898 -2.03342293 0 0 Z " fill="#767F9A" transform="translate(259,125)"/>
<path d="M0 0 C0.99 0 1.98 0 3 0 C3.33 1.32 3.66 2.64 4 4 C7.96 4 11.92 4 16 4 C16 4.99 16 5.98 16 7 C15.01257813 7.06058594 14.02515625 7.12117188 13.0078125 7.18359375 C11.72648437 7.26738281 10.44515625 7.35117188 9.125 7.4375 C7.84882812 7.51871094 6.57265625 7.59992188 5.2578125 7.68359375 C2.11699848 7.79206027 2.11699848 7.79206027 0 9 C0.33 7.35 0.66 5.7 1 4 C0.34 3.67 -0.32 3.34 -1 3 C-0.67 2.01 -0.34 1.02 0 0 Z " fill="#4F5E80" transform="translate(84,107)"/>
<path d="M0 0 C1 2 1 2 0.4375 5.5 C0.293125 6.655 0.14875 7.81 0 9 C0.66 9.66 1.32 10.32 2 11 C-1.0510635 12.01702117 -3.24199061 12.16582083 -6.4375 12.1875 C-7.85869141 12.20876953 -7.85869141 12.20876953 -9.30859375 12.23046875 C-12.04501644 11.99614518 -13.66428123 11.39701383 -16 10 C-13.13822943 8.56911472 -11.06624227 9.40008303 -8 10 C-7.38125 8.7625 -7.38125 8.7625 -6.75 7.5 C-6.1725 6.675 -5.595 5.85 -5 5 C-3.68 5 -2.36 5 -1 5 C-2.12534105 3.64381501 -2.12534105 3.64381501 -5.0625 3.9375 C-6.5165625 3.9684375 -6.5165625 3.9684375 -8 4 C-8 3.67 -8 3.34 -8 3 C-6.865625 2.690625 -5.73125 2.38125 -4.5625 2.0625 C-1.21224901 1.37075469 -1.21224901 1.37075469 0 0 Z " fill="#4B5A78" transform="translate(405,89)"/>
<path d="M0 0 C0.721875 0.391875 1.44375 0.78375 2.1875 1.1875 C2.1875 1.8475 2.1875 2.5075 2.1875 3.1875 C0.2075 3.1875 -1.7725 3.1875 -3.8125 3.1875 C-4.1425 4.5075 -4.4725 5.8275 -4.8125 7.1875 C-1.34102158 7.93707157 -1.34102158 7.93707157 2.1875 8.1875 C1.8575 9.1775 1.5275 10.1675 1.1875 11.1875 C-1.75608324 12.08692821 -3.25610465 12.4281034 -6.125 11.1875 C-7.8125 9.1875 -7.8125 9.1875 -8.375 5.6875 C-7.8125 2.1875 -7.8125 2.1875 -5.625 0.125 C-2.8125 -0.8125 -2.8125 -0.8125 0 0 Z " fill="#646E8B" transform="translate(464.8125,123.8125)"/>
<path d="M0 0 C0.66 0 1.32 0 2 0 C2 0.66 2 1.32 2 2 C3.65 2 5.3 2 7 2 C7.33 3.32 7.66 4.64 8 6 C5 8 5 8 1.9375 7.875 C-1 7 -1 7 -2.375 4.9375 C-2.58125 4.298125 -2.7875 3.65875 -3 3 C-2.34 3 -1.68 3 -1 3 C-0.67 2.01 -0.34 1.02 0 0 Z " fill="#214C6D" transform="translate(32,132)"/>
<path d="M0 0 C0.66 0 1.32 0 2 0 C2.33 0.66 2.66 1.32 3 2 C3.99 2.66 4.98 3.32 6 4 C4.68 4.33 3.36 4.66 2 5 C2.33 6.98 2.66 8.96 3 11 C3.99 11.33 4.98 11.66 6 12 C5.67 12.99 5.34 13.98 5 15 C1.125 14.125 1.125 14.125 0 13 C-0.14115161 10.32941149 -0.04247107 7.67567762 0 5 C-0.66 5 -1.32 5 -2 5 C-1.34 3.35 -0.68 1.7 0 0 Z " fill="#666E8E" transform="translate(264,121)"/>
<path d="M0 0 C1.75 1 1.75 1 2.75 4 C7.04 4 11.33 4 15.75 4 C15.75 4.33 15.75 4.66 15.75 5 C12.48112432 5.39360387 9.20986587 5.761653 5.9375 6.125 C5.00873047 6.23714844 4.07996094 6.34929688 3.12304688 6.46484375 C2.23037109 6.56152344 1.33769531 6.65820312 0.41796875 6.7578125 C-0.81530151 6.89920654 -0.81530151 6.89920654 -2.07348633 7.04345703 C-4.25 7 -4.25 7 -7.25 5 C-2.8597561 -0 -2.8597561 -0 0 0 Z " fill="#4DC9D6" transform="translate(51.25,2)"/>
<path d="M0 0 C0.99 0 1.98 0 3 0 C3 5.28 3 10.56 3 16 C2.01 16 1.02 16 0 16 C0 10.72 0 5.44 0 0 Z " fill="#7E869F" transform="translate(427,119)"/>
<path d="M0 0 C1.32 0 2.64 0 4 0 C4 0.66 4 1.32 4 2 C3.01 2 2.02 2 1 2 C1 2.99 1 3.98 1 5 C1.99 5 2.98 5 4 5 C4 5.66 4 6.32 4 7 C3.01 7 2.02 7 1 7 C1 9.97 1 12.94 1 16 C0.34 16 -0.32 16 -1 16 C-1 13.03 -1 10.06 -1 7 C-1.66 7 -2.32 7 -3 7 C-1.125 1.125 -1.125 1.125 0 0 Z " fill="#545E7E" transform="translate(346,119)"/>
<path d="M0 0 C0.99 0.33 1.98 0.66 3 1 C3 5.95 3 10.9 3 16 C2.01 16 1.02 16 0 16 C0 10.72 0 5.44 0 0 Z " fill="#80869B" transform="translate(197,119)"/>
<path d="M0 0 C0.66 0 1.32 0 2 0 C2 0.99 2 1.98 2 3 C2.99 3 3.98 3 5 3 C5 3.66 5 4.32 5 5 C4.01 5 3.02 5 2 5 C2 7.31 2 9.62 2 12 C2.99 12 3.98 12 5 12 C5 12.99 5 13.98 5 15 C1.125 14.125 1.125 14.125 0 13 C-0.14115161 10.32941149 -0.04247107 7.67567762 0 5 C-0.66 5 -1.32 5 -2 5 C-2 4.34 -2 3.68 -2 3 C-1.34 3 -0.68 3 0 3 C0 2.01 0 1.02 0 0 Z " fill="#586382" transform="translate(435,121)"/>
<path d="M0 0 C1.50390625 1.3828125 1.50390625 1.3828125 3 3 C2.87135742 6.85927735 0.3176026 9.10299674 -2 12 C-2.185625 12.7425 -2.37125 13.485 -2.5625 14.25 C-2.706875 14.8275 -2.85125 15.405 -3 16 C-3.99 16.33 -4.98 16.66 -6 17 C-4.13236819 11.27789404 -2.14710968 5.62338249 0 0 Z " fill="#364363" transform="translate(209,53)"/>
<path d="M0 0 C2.5654594 2.5654594 2.54046087 4.47686668 3 8 C1.35 8.33 -0.3 8.66 -2 9 C-2.99 7.02 -3.98 5.04 -5 3 C-3.35 2.01 -1.7 1.02 0 0 Z " fill="#4CAEBF" transform="translate(116,29)"/>
<path d="M0 0 C6.27 0 12.54 0 19 0 C19 0.33 19 0.66 19 1 C15.04 1 11.08 1 7 1 C7 1.99 7 2.98 7 4 C4.03 4 1.06 4 -2 4 C-1.34 2.68 -0.68 1.36 0 0 Z " fill="#042146" transform="translate(60,141)"/>
<path d="M0 0 C0.99 0 1.98 0 3 0 C5.35580196 5.44779202 5.9652158 11.15247902 5 17 C2.5 19.1875 2.5 19.1875 0 20 C0.15597656 19.443125 0.31195313 18.88625 0.47265625 18.3125 C2.16474044 11.67863352 2.19549819 6.58649457 0 0 Z " fill="#467895" transform="translate(130,85)"/>
<path d="M0 0 C1.28132813 0.00902344 2.56265625 0.01804687 3.8828125 0.02734375 C4.87023437 0.03894531 5.85765625 0.05054687 6.875 0.0625 C6.875 0.3925 6.875 0.7225 6.875 1.0625 C3.905 1.0625 0.935 1.0625 -2.125 1.0625 C-2.125 1.7225 -2.125 2.3825 -2.125 3.0625 C0.515 3.0625 3.155 3.0625 5.875 3.0625 C5.875 3.3925 5.875 3.7225 5.875 4.0625 C3.94101192 4.33835566 2.00246091 4.58237415 0.0625 4.8125 C-1.01644531 4.95171875 -2.09539062 5.0909375 -3.20703125 5.234375 C-6.125 5.0625 -6.125 5.0625 -8.01171875 3.078125 C-8.37910156 2.41296875 -8.74648438 1.7478125 -9.125 1.0625 C-6.12186252 -0.43906874 -3.33432478 -0.03031204 0 0 Z " fill="#060F2A" transform="translate(315.125,78.9375)"/>
<path d="M0 0 C3.3 0 6.6 0 10 0 C10 0.99 10 1.98 10 3 C9.34 3 8.68 3 8 3 C7.67 3.99 7.34 4.98 7 6 C4.36 6 1.72 6 -1 6 C-0.360625 5.71125 0.27875 5.4225 0.9375 5.125 C3.15206079 4.17176549 3.15206079 4.17176549 4 2 C2.68 1.67 1.36 1.34 0 1 C0 0.67 0 0.34 0 0 Z " fill="#061139" transform="translate(309,94)"/>
<path d="M0 0 C0.66 0.33 1.32 0.66 2 1 C1.66802317 4.01489166 1.02741538 4.97393846 -1.21484375 7.10546875 C-2.56255859 8.13607422 -2.56255859 8.13607422 -3.9375 9.1875 C-4.83339844 9.88230469 -5.72929687 10.57710937 -6.65234375 11.29296875 C-9 13 -9 13 -11 14 C-9.57442379 10.82096506 -7.8226848 8.46341568 -5.5 5.875 C-4.8915625 5.19179688 -4.283125 4.50859375 -3.65625 3.8046875 C-2.46695076 2.50880012 -1.24373566 1.24373566 0 0 Z " fill="#65C2D1" transform="translate(26,14)"/>
<path d="M0 0 C3.3 1.65 6.6 3.3 10 5 C10 5.33 10 5.66 10 6 C8.35 6 6.7 6 5 6 C5 5.34 5 4.68 5 4 C4.34 4 3.68 4 3 4 C2.67 5.32 2.34 6.64 2 8 C0.68 8 -0.64 8 -2 8 C-2.33 7.34 -2.66 6.68 -3 6 C-2.34 6 -1.68 6 -1 6 C-0.67 4.02 -0.34 2.04 0 0 Z " fill="#3A607E" transform="translate(29,128)"/>
<path d="M0 0 C0.33 0.99 0.66 1.98 1 3 C-1.40436026 6.60654039 -2.94679607 6.85452932 -7 8 C-6.67 6.68 -6.34 5.36 -6 4 C-4.68 3.67 -3.36 3.34 -2 3 C-3.65 3 -5.3 3 -7 3 C-7 2.01 -7 1.02 -7 0 C-4.3333581 -1.33332095 -2.83319697 -0.67102033 0 0 Z " fill="#586485" transform="translate(422,124)"/>
<path d="M0 0 C0.66 1.32 1.32 2.64 2 4 C0.02 6.64 -1.96 9.28 -4 12 C-6 11 -6 11 -7 10 C-7.33 11.32 -7.66 12.64 -8 14 C-8.375 11.8125 -8.375 11.8125 -8 9 C-6.05651499 7.26776336 -4.05279996 5.60118397 -2 4 C-0.62745412 1.85019503 -0.62745412 1.85019503 0 0 Z " fill="#486385" transform="translate(129,105)"/>
<path d="M0 0 C0.66 0.33 1.32 0.66 2 1 C2 2.32 2 3.64 2 5 C3.32 5.33 4.64 5.66 6 6 C5.01 7.485 5.01 7.485 4 9 C-0.67692308 7.52307692 -0.67692308 7.52307692 -2.3125 4.875 C-2.539375 4.25625 -2.76625 3.6375 -3 3 C-2.01 2.01 -1.02 1.02 0 0 Z " fill="#43506F" transform="translate(302,66)"/>
<path d="M0 0 C0.66 0 1.32 0 2 0 C2 4.62 2 9.24 2 14 C1.67 14 1.34 14 1 14 C0.67 12.35 0.34 10.7 0 9 C-0.99 9.495 -0.99 9.495 -2 10 C-2.1953125 3.9453125 -2.1953125 3.9453125 -2 2 C-1.34 1.34 -0.68 0.68 0 0 Z " fill="#0797B4" transform="translate(522,52)"/>
<path d="M0 0 C2.375 0.625 2.375 0.625 5 2 C6.5 4.875 6.5 4.875 7 8 C5.625 10.375 5.625 10.375 4 12 C2.35 11.67 0.7 11.34 -1 11 C0.32 10.34 1.64 9.68 3 9 C3.33425735 6.62625139 3.33425735 6.62625139 3 4 C1.0995533 2.15684329 1.0995533 2.15684329 -1 1 C-0.67 0.67 -0.34 0.34 0 0 Z " fill="#646C8D" transform="translate(357,123)"/>
<path d="M0 0 C3.3 0 6.6 0 10 0 C10.66 1.32 11.32 2.64 12 4 C10.906875 3.79375 9.81375 3.5875 8.6875 3.375 C4.9161599 2.59653475 4.9161599 2.59653475 2 5 C1.34 4.34 0.68 3.68 0 3 C0 2.01 0 1.02 0 0 Z " fill="#616983" transform="translate(259,63)"/>
<path d="M0 0 C2.31 0 4.62 0 7 0 C6.360625 0.70125 5.72125 1.4025 5.0625 2.125 C2.83613898 5.22841233 2.34919057 7.24620139 2 11 C1.34 11 0.68 11 0 11 C0 7.37 0 3.74 0 0 Z " fill="#586281" transform="translate(367,124)"/>
<path d="M0 0 C6.0546875 -0.1953125 6.0546875 -0.1953125 8 0 C8.66 0.66 9.32 1.32 10 2 C9.34 2.66 8.68 3.32 8 4 C4.875 3.625 4.875 3.625 2 3 C1.67 4.32 1.34 5.64 1 7 C0.67 7 0.34 7 0 7 C0 4.69 0 2.38 0 0 Z " fill="#6F7993" transform="translate(281,119)"/>
<path d="M0 0 C2.64 0 5.28 0 8 0 C8 0.33 8 0.66 8 1 C5.69 1 3.38 1 1 1 C1 2.32 1 3.64 1 5 C2.98 5 4.96 5 7 5 C7 5.99 7 6.98 7 8 C5.02 8 3.04 8 1 8 C1 9.98 1 11.96 1 14 C0.67 14 0.34 14 0 14 C0 9.38 0 4.76 0 0 Z " fill="#A7AEC1" transform="translate(214,121)"/>
<path d="M0 0 C0.33 0 0.66 0 1 0 C1.05410687 1.77049689 1.09284119 3.54146849 1.125 5.3125 C1.14820312 6.29863281 1.17140625 7.28476563 1.1953125 8.30078125 C1 11 1 11 -1 14 C-1.99 13.34 -2.98 12.68 -4 12 C-4 10.68 -4 9.36 -4 8 C-3.01 8 -2.02 8 -1 8 C-0.67 5.36 -0.34 2.72 0 0 Z " fill="#1B2E56" transform="translate(74,103)"/>
<path d="M0 0 C0.66 0 1.32 0 2 0 C5.62870159 11.52164009 5.62870159 11.52164009 4 17 C1.64019954 13.4602993 1.41399192 11.00893712 0.875 6.8125 C0.70742187 5.54019531 0.53984375 4.26789063 0.3671875 2.95703125 C0.24601562 1.98121094 0.12484375 1.00539063 0 0 Z " fill="#7196AB" transform="translate(0,85)"/>
<path d="M0 0 C0 0.99 0 1.98 0 3 C-0.99 3.33 -1.98 3.66 -3 4 C-3.12375 5.299375 -3.2475 6.59875 -3.375 7.9375 C-3.5859375 10.15234375 -3.5859375 10.15234375 -4 12 C-4.99 12.495 -4.99 12.495 -6 13 C-6 9.04 -6 5.08 -6 1 C-2 0 -2 0 0 0 Z " fill="#606B89" transform="translate(232,123)"/>
<path d="M0 0 C1.9375 0.6875 1.9375 0.6875 4 2 C4.875 4.5 4.875 4.5 5 7 C4.34 7.66 3.68 8.32 3 9 C2.34 8.01 1.68 7.02 1 6 C0.34 6.99 -0.32 7.98 -1 9 C-2.0326802 6.21176345 -2.04509293 5.1322726 -1.0625 2.25 C-0.711875 1.5075 -0.36125 0.765 0 0 Z " fill="#69708B" transform="translate(185,119)"/>
<path d="M0 0 C0.33 0 0.66 0 1 0 C1.06058594 0.71027344 1.12117187 1.42054687 1.18359375 2.15234375 C1.26738281 3.07144531 1.35117187 3.99054688 1.4375 4.9375 C1.51871094 5.85402344 1.59992187 6.77054687 1.68359375 7.71484375 C1.76044976 9.96159732 1.76044976 9.96159732 3 11 C3.33 8.36 3.66 5.72 4 3 C4.33 3 4.66 3 5 3 C5 6.63 5 10.26 5 14 C3.35 14 1.7 14 0 14 C0 9.38 0 4.76 0 0 Z " fill="#067E99" transform="translate(519,84)"/>
<path d="M0 0 C2.1875 2.5 2.1875 2.5 4 5 C3.01 5 2.02 5 1 5 C0.67 4.67 0.34 4.34 0 4 C-2.18292774 3.76518307 -4.37203174 3.58636677 -6.5625 3.4375 C-8.35880859 3.31181641 -8.35880859 3.31181641 -10.19140625 3.18359375 C-11.11824219 3.12300781 -12.04507813 3.06242187 -13 3 C-11 1 -11 1 -8 0.9375 C-7.01 0.958125 -6.02 0.97875 -5 1 C-3 0 -3 0 0 0 Z " fill="#1A99B1" transform="translate(120,51)"/>
<path d="M0 0 C1.23556641 0.01740234 1.23556641 0.01740234 2.49609375 0.03515625 C3.32238281 0.04417969 4.14867187 0.05320313 5 0.0625 C5.63808594 0.07410156 6.27617187 0.08570313 6.93359375 0.09765625 C6.60359375 1.08765625 6.27359375 2.07765625 5.93359375 3.09765625 C3.62359375 2.76765625 1.31359375 2.43765625 -1.06640625 2.09765625 C-1.39640625 3.74765625 -1.72640625 5.39765625 -2.06640625 7.09765625 C-3.05640625 7.42765625 -4.04640625 7.75765625 -5.06640625 8.09765625 C-2.89527115 0.13682756 -2.89527115 0.13682756 0 0 Z " fill="#2CA1BB" transform="translate(486.06640625,49.90234375)"/>
<path d="M0 0 C0 0.66 0 1.32 0 2 C-0.99 2.66 -1.98 3.32 -3 4 C-3.73606499 7.56769552 -3.73606499 7.56769552 -4 11 C-4.66 11 -5.32 11 -6 11 C-6 7.37 -6 3.74 -6 0 C-2 -1 -2 -1 0 0 Z " fill="#556182" transform="translate(490,124)"/>
<path d="M0 0 C2 1.3125 2 1.3125 4 4 C4.36089448 7.68855385 4.22933459 11.3051649 4 15 C-0.00304878 11.07393293 -0.00304878 11.07393293 -1 8 C-0.86384919 5.27174732 -0.45066966 2.70401794 0 0 Z " fill="#617594" transform="translate(74,98)"/>
<path d="M0 0 C11.70615034 -0.55353075 11.70615034 -0.55353075 16 3 C15.01 3.495 15.01 3.495 14 4 C12.88625 3.505 12.88625 3.505 11.75 3 C8.40530813 1.78374841 6.44258422 2.32645091 3 3 C2.01 2.67 1.02 2.34 0 2 C0 1.34 0 0.68 0 0 Z " fill="#2FB5C4" transform="translate(120,43)"/>
<path d="M0 0 C4.95 0 9.9 0 15 0 C15 0.33 15 0.66 15 1 C14.37351562 1.02578125 13.74703125 1.0515625 13.1015625 1.078125 C12.28429688 1.13484375 11.46703125 1.1915625 10.625 1.25 C9.81289063 1.29640625 9.00078125 1.3428125 8.1640625 1.390625 C5.81161073 1.7922092 5.81161073 1.7922092 4.7109375 4.046875 C4.47632813 4.69140625 4.24171875 5.3359375 4 6 C2.62437146 4.71034824 1.29233607 3.37310707 0 2 C0 1.34 0 0.68 0 0 Z " fill="#6A99AD" transform="translate(11,42)"/>
<path d="M0 0 C0 0.33 0 0.66 0 1 C-1.20398438 1.03738281 -2.40796875 1.07476562 -3.6484375 1.11328125 C-5.22399011 1.17892928 -6.79950954 1.24537701 -8.375 1.3125 C-9.1690625 1.33505859 -9.963125 1.35761719 -10.78125 1.38085938 C-12.86215581 1.47785075 -14.93441332 1.72994825 -17 2 C-17.99 3.485 -17.99 3.485 -19 5 C-20.32 4.67 -21.64 4.34 -23 4 C-16.25431509 -2.91432704 -8.87352932 -1.07590211 0 0 Z " fill="#596F8A" transform="translate(77,140)"/>
<path d="M0 0 C2.64 0.33 5.28 0.66 8 1 C8.33 1.99 8.66 2.98 9 4 C8.67 4.66 8.34 5.32 8 6 C5.69 5.34 3.38 4.68 1 4 C0.67 2.68 0.34 1.36 0 0 Z " fill="#0B1B41" transform="translate(261,65)"/>
<path d="M0 0 C0.66 0 1.32 0 2 0 C2 0.66 2 1.32 2 2 C5.465 1.505 5.465 1.505 9 1 C9 2.65 9 4.3 9 6 C3.50847458 5.38983051 3.50847458 5.38983051 1.125 3.5625 C0 2 0 2 0 0 Z " fill="#17A3BB" transform="translate(100,18)"/>
<path d="M0 0 C2.61881031 3.92821547 2.28987737 7.43443139 2 12 C1.34 12.99 0.68 13.98 0 15 C-1.5638537 10.1129572 -1.5638537 4.8870428 0 0 Z " fill="#515E78" transform="translate(374,74)"/>
<path d="M0 0 C0.90105469 0.02707031 1.80210938 0.05414063 2.73046875 0.08203125 C3.76107422 0.13423828 3.76107422 0.13423828 4.8125 0.1875 C1.17633344 2.1664756 -2.07175629 2.7126065 -6.1875 3.1875 C-6.5175 4.8375 -6.8475 6.4875 -7.1875 8.1875 C-8.1775 8.1875 -9.1675 8.1875 -10.1875 8.1875 C-8.1106538 2.27647621 -6.52406776 -0.25418446 0 0 Z " fill="#38B2C7" transform="translate(94.1875,42.8125)"/>
<path d="M0 0 C2.625 0.9375 2.625 0.9375 5 2 C5 4.97 5 7.94 5 11 C4.34 9.68 3.68 8.36 3 7 C3.33 6.01 3.66 5.02 4 4 C1.69 4 -0.62 4 -3 4 C-2.67 3.01 -2.34 2.02 -2 1 C-1.34 0.67 -0.68 0.34 0 0 Z " fill="#4E597B" transform="translate(474,123)"/>
<path d="M0 0 C1.6662553 0.0370279 3.33401319 0.04759962 5 0 C5.33 1.65 5.66 3.3 6 5 C5.505 4.67 5.01 4.34 4.5 4 C0.90909106 2.56363642 -2.14456127 2.87148538 -6 3 C-6.33 2.01 -6.66 1.02 -7 0 C-4.30493528 -1.34753236 -2.91558912 -0.61023958 0 0 Z " fill="#44516F" transform="translate(315,69)"/>
<path d="M0 0 C1.65 0 3.3 0 5 0 C5 1.98 5 3.96 5 6 C3.35 6 1.7 6 0 6 C0 4.02 0 2.04 0 0 Z " fill="#0A2458" transform="translate(114,115)"/>
<path d="M0 0 C0.66 0 1.32 0 2 0 C2.33 0.99 2.66 1.98 3 3 C3.66 3.66 4.32 4.32 5 5 C5.40047444 7.32275177 5.7397104 9.65739357 6 12 C3.04250209 8.53258866 0.92151848 5.13126473 -1 1 C-0.67 0.67 -0.34 0.34 0 0 Z " fill="#445A7C" transform="translate(36,82)"/>
<path d="M0 0 C0.33 1.32 0.66 2.64 1 4 C-2 6 -2 6 -4.6875 5.625 C-5.450625 5.41875 -6.21375 5.2125 -7 5 C-7.33 4.01 -7.66 3.02 -8 2 C-5.03 2.495 -5.03 2.495 -2 3 C-1.67 2.34 -1.34 1.68 -1 1 C-0.67 0.67 -0.34 0.34 0 0 Z " fill="#7D87A0" transform="translate(319,130)"/>
<path d="M0 0 C0.99 0 1.98 0 3 0 C3.98248524 4.0527516 4.08159574 7.83861737 4 12 C3.67 12 3.34 12 3 12 C3 10.35 3 8.7 3 7 C2.01 6.67 1.02 6.34 0 6 C0 4.02 0 2.04 0 0 Z " fill="#0D234F" transform="translate(75,95)"/>
<path d="M0 0 C1 2 1 2 0.25 4.9375 C-0.89726872 7.74830836 -1.69701628 9.1157406 -4 11 C-5 9 -5 9 -4.51171875 7.08984375 C-4.10373047 6.02443359 -4.10373047 6.02443359 -3.6875 4.9375 C-3.42324219 4.22464844 -3.15898437 3.51179688 -2.88671875 2.77734375 C-2 1 -2 1 0 0 Z " fill="#3CA0B9" transform="translate(475,75)"/>
<path d="M0 0 C1.98 0 3.96 0 6 0 C6 2.97 6 5.94 6 9 C5.67 9 5.34 9 5 9 C5 6.36 5 3.72 5 1 C1.87393036 2.60480784 1.87393036 2.60480784 1.48828125 4.9453125 C1.43027344 5.66460937 1.37226562 6.38390625 1.3125 7.125 C1.209375 8.40375 1.10625 9.6825 1 11 C0.67 11 0.34 11 0 11 C0 7.37 0 3.74 0 0 Z " fill="#018FAD" transform="translate(519,51)"/>
<path d="M0 0 C0 0.66 0 1.32 0 2 C-1.36125 1.9690625 -1.36125 1.9690625 -2.75 1.9375 C-5.42672588 1.9889755 -7.46988052 2.2215017 -10 3 C-9.1875 1.0625 -9.1875 1.0625 -8 -1 C-4.37673261 -2.2077558 -3.35853631 -1.54311128 0 0 Z " fill="#757D95" transform="translate(467,125)"/>
<path d="M0 0 C0.66 0 1.32 0 2 0 C2 0.99 2 1.98 2 3 C2.66 3 3.32 3 4 3 C4.33 3.99 4.66 4.98 5 6 C4.67 6.66 4.34 7.32 4 8 C4.66 8.33 5.32 8.66 6 9 C5.01 9 4.02 9 3 9 C1.68 6.36 0.36 3.72 -1 1 C-0.67 0.67 -0.34 0.34 0 0 Z " fill="#485979" transform="translate(43,94)"/>
<path d="M0 0 C1.60517097 0.08733576 3.20921662 0.19552224 4.8125 0.3125 C6.15248047 0.39951172 6.15248047 0.39951172 7.51953125 0.48828125 C10.30604 1.06313581 11.24135754 1.8206856 13 4 C7.73946963 4.31563182 4.55426184 3.66590937 0 1 C0 0.67 0 0.34 0 0 Z " fill="#041034" transform="translate(388,96)"/>
<path d="M0 0 C3.3 0 6.6 0 10 0 C8.25 4.875 8.25 4.875 6 6 C6 5.01 6 4.02 6 3 C5.01 2.67 4.02 2.34 3 2 C2.01 1.34 1.02 0.68 0 0 Z " fill="#71798D" transform="translate(285,63)"/>
<path d="M0 0 C2.97 0 5.94 0 9 0 C9 0.99 9 1.98 9 3 C6.69 3.33 4.38 3.66 2 4 C2 3.34 2 2.68 2 2 C1.34 2 0.68 2 0 2 C0 1.34 0 0.68 0 0 Z " fill="#7D859E" transform="translate(402,127)"/>
<path d="M0 0 C4.455 0.99 4.455 0.99 9 2 C8.67 2.66 8.34 3.32 8 4 C7.05125 3.979375 6.1025 3.95875 5.125 3.9375 C2.09333717 3.77448174 2.09333717 3.77448174 0 5 C0 3.35 0 1.7 0 0 Z " fill="#848DA8" transform="translate(299,127)"/>
<path d="M0 0 C0.33 0.66 0.66 1.32 1 2 C2.89533342 2.46523063 2.89533342 2.46523063 5.0625 2.625 C6.361875 2.74875 7.66125 2.8725 9 3 C5.5980513 5.09350689 2.94727588 5.17942163 -1 5 C-1 1 -1 1 0 0 Z " fill="#828A9E" transform="translate(260,96)"/>
<path d="M0 0 C0.433125 0.9590625 0.433125 0.9590625 0.875 1.9375 C1.82823451 4.15206079 1.82823451 4.15206079 4 5 C4.66 3.68 5.32 2.36 6 1 C5.67 2.65 5.34 4.3 5 6 C2.69 6 0.38 6 -2 6 C-1.49396008 3.83125748 -1.00016187 2.00032373 0 0 Z " fill="#087E9E" transform="translate(468,93)"/>
<path d="M0 0 C0.66 0 1.32 0 2 0 C2.33 0.99 2.66 1.98 3 3 C1 6 1 6 -1.625 6.6875 C-2.800625 6.8421875 -2.800625 6.8421875 -4 7 C-2.79618552 4.50638429 -1.54571278 2.31856917 0 0 Z " fill="#2F3B53" transform="translate(268,85)"/>
<path d="M0 0 C0.66 0.33 1.32 0.66 2 1 C0.35 3.64 -1.3 6.28 -3 9 C-3.66 8.67 -4.32 8.34 -5 8 C-3.8141763 4.62496331 -2.72426311 2.35277269 0 0 Z " fill="#333F5A" transform="translate(226,66)"/>
<path d="M0 0 C1.76462683 3.08809695 2 4.23312136 2 8 C0.35 8 -1.3 8 -3 8 C-3 7.01 -3 6.02 -3 5 C-2.34 4.67 -1.68 4.34 -1 4 C-0.34786708 1.97536745 -0.34786708 1.97536745 0 0 Z " fill="#092E55" transform="translate(43,137)"/>
<path d="M0 0 C0.33 0 0.66 0 1 0 C1.66 3.96 2.32 7.92 3 12 C2.01 12.33 1.02 12.66 0 13 C0 8.71 0 4.42 0 0 Z " fill="#545D7B" transform="translate(384,122)"/>
<path d="M0 0 C0.99 0 1.98 0 3 0 C3 3.3 3 6.6 3 10 C2.34 10 1.68 10 1 10 C0.67 6.7 0.34 3.4 0 0 Z " fill="#576282" transform="translate(256,125)"/>
<path d="M0 0 C0 0.33 0 0.66 0 1 C-1.65 1.33 -3.3 1.66 -5 2 C-5.33 3.32 -5.66 4.64 -6 6 C-7.32 6 -8.64 6 -10 6 C-10 4.68 -10 3.36 -10 2 C-6.5980513 -0.09350689 -3.94727588 -0.17942163 0 0 Z " fill="#05153C" transform="translate(125,125)"/>
<path d="M0 0 C0.33 0.99 0.66 1.98 1 3 C3.31 3 5.62 3 8 3 C8.33 2.01 8.66 1.02 9 0 C9.33 0.66 9.66 1.32 10 2 C9.67 2.66 9.34 3.32 9 4 C6.93359375 4.4140625 6.93359375 4.4140625 4.4375 4.625 C3.61121094 4.69976562 2.78492188 4.77453125 1.93359375 4.8515625 C0.97646484 4.92503906 0.97646484 4.92503906 0 5 C-0.33 4.34 -0.66 3.68 -1 3 C-0.67 2.01 -0.34 1.02 0 0 Z " fill="#89C3D1" transform="translate(465,96)"/>
<path d="M0 0 C0.66 0.66 1.32 1.32 2 2 C1.9765625 4.6015625 1.9765625 4.6015625 1.625 7.625 C1.51414063 8.62789062 1.40328125 9.63078125 1.2890625 10.6640625 C1.19367188 11.43492188 1.09828125 12.20578125 1 13 C-0.32 13.33 -1.64 13.66 -3 14 C-2.2575 12.205625 -2.2575 12.205625 -1.5 10.375 C-0.14088765 6.78898524 0.2899464 3.86595201 0 0 Z " fill="#545D79" transform="translate(247,77)"/>
<path d="M0 0 C3 1 3 1 4.16796875 2.84765625 C4.50441406 3.57855469 4.84085938 4.30945312 5.1875 5.0625 C5.53167969 5.79597656 5.87585938 6.52945313 6.23046875 7.28515625 C6.48441406 7.85105469 6.73835938 8.41695312 7 9 C6.01 9 5.02 9 4 9 C0 2.25 0 2.25 0 0 Z " fill="#447290" transform="translate(16,50)"/>
<path d="M0 0 C1.32 0.33 2.64 0.66 4 1 C3.67 2.32 3.34 3.64 3 5 C1.68 5.33 0.36 5.66 -1 6 C-1.33 5.34 -1.66 4.68 -2 4 C-1.34 4 -0.68 4 0 4 C0 2.68 0 1.36 0 0 Z " fill="#073053" transform="translate(36,134)"/>
<path d="M0 0 C0.33 0 0.66 0 1 0 C1 2.97 1 5.94 1 9 C-1.31 8.67 -3.62 8.34 -6 8 C-4.7934375 7.13375 -4.7934375 7.13375 -3.5625 6.25 C-1.02133261 4.01873107 -0.34879632 3.25543229 0 0 Z " fill="#919AB0" transform="translate(479,126)"/>
<path d="M0 0 C1.07765625 0.01804688 2.1553125 0.03609375 3.265625 0.0546875 C4.49539062 0.08949219 4.49539062 0.08949219 5.75 0.125 C5.75 0.455 5.75 0.785 5.75 1.125 C4.86248047 1.21587891 4.86248047 1.21587891 3.95703125 1.30859375 C0.53253194 1.67171358 -2.81626731 2.03271645 -6.1875 2.75 C-8.25 3.125 -8.25 3.125 -10.25 2.125 C-6.7733662 -0.01836161 -4.03770805 -0.08777626 0 0 Z " fill="#53607A" transform="translate(238.25,62.875)"/>
<path d="M0 0 C1.32 0 2.64 0 4 0 C3.6875 2.375 3.6875 2.375 3 5 C2.01 5.66 1.02 6.32 0 7 C0 4.69 0 2.38 0 0 Z " fill="#061B45" transform="translate(428,55)"/>
<path d="M0 0 C1.5 1.375 1.5 1.375 3 3 C3 3.66 3 4.32 3 5 C0.69 5 -1.62 5 -4 5 C-4 4.34 -4 3.68 -4 3 C-3.01 2.67 -2.02 2.34 -1 2 C-0.67 1.34 -0.34 0.68 0 0 Z " fill="#189CB7" transform="translate(87,48)"/>
<path d="M0 0 C-0.33 0.99 -0.66 1.98 -1 3 C-3.375 3.625 -3.375 3.625 -6 4 C-6.66 3.34 -7.32 2.68 -8 2 C-5.09399739 0.74335022 -3.20395416 0 0 0 Z " fill="#7E89A3" transform="translate(308,132)"/>
<path d="M0 0 C-0.99 1.485 -0.99 1.485 -2 3 C-4.625 3.1875 -4.625 3.1875 -7 3 C-7 2.01 -7 1.02 -7 0 C-4.3333581 -1.33332095 -2.83319697 -0.67102033 0 0 Z " fill="#79849D" transform="translate(422,124)"/>
<path d="M0 0 C0.66 0.66 1.32 1.32 2 2 C-1.38598829 3.04184255 -4.46681687 3.23042499 -8 3 C-8.66 2.34 -9.32 1.68 -10 1 C-8.37675914 0.77837671 -6.751279 0.57310197 -5.125 0.375 C-4.22007812 0.25898437 -3.31515625 0.14296875 -2.3828125 0.0234375 C-1.59648437 0.01570313 -0.81015625 0.00796875 0 0 Z " fill="#8990A3" transform="translate(294,98)"/>
<path d="M0 0 C2.64 0 5.28 0 8 0 C8 0.99 8 1.98 8 3 C7.34 3 6.68 3 6 3 C6 3.66 6 4.32 6 5 C5.34 5 4.68 5 4 5 C4 3.68 4 2.36 4 1 C2.68 0.67 1.36 0.34 0 0 Z " fill="#0F1B3C" transform="translate(311,94)"/>
<path d="M0 0 C4.42857143 5.14285714 4.42857143 5.14285714 5 9 C3.0625 8.6875 3.0625 8.6875 1 8 C0.67 7.01 0.34 6.02 0 5 C0.33 4.67 0.66 4.34 1 4 C0.34 3.34 -0.32 2.68 -1 2 C-0.67 1.34 -0.34 0.68 0 0 Z " fill="#547C97" transform="translate(34,51)"/>
<path d="M0 0 C2.99324263 1.0975223 3.84610901 1.67682892 5.25 4.625 C5.4975 5.40875 5.745 6.1925 6 7 C4.125 6.875 4.125 6.875 2 6 C0.75 2.9375 0.75 2.9375 0 0 Z " fill="#4C7E97" transform="translate(28,44)"/>
<path d="M0 0 C0.66 0.33 1.32 0.66 2 1 C1.67 1.99 1.34 2.98 1 4 C-0.98 4.33 -2.96 4.66 -5 5 C-4.1875 3.0625 -4.1875 3.0625 -3 1 C-2.01 0.67 -1.02 0.34 0 0 Z " fill="#33B6CB" transform="translate(31,12)"/>
<path d="M0 0 C0.66 0 1.32 0 2 0 C2 0.66 2 1.32 2 2 C1.34 2 0.68 2 0 2 C0.33 2.99 0.66 3.98 1 5 C0.67 5.66 0.34 6.32 0 7 C0.66 7 1.32 7 2 7 C2 7.66 2 8.32 2 9 C1.01 8.67 0.02 8.34 -1 8 C-1.625 5.6875 -1.625 5.6875 -2 3 C-1.34 2.01 -0.68 1.02 0 0 Z " fill="#4D587B" transform="translate(299,125)"/>
<path d="M0 0 C4.875 1.75 4.875 1.75 6 4 C5.72057545 5.67654729 5.39171753 7.34608154 5 9 C4.67 9 4.34 9 4 9 C3.67 7.35 3.34 5.7 3 4 C2.01 3.67 1.02 3.34 0 3 C0 2.01 0 1.02 0 0 Z " fill="#7A839D" transform="translate(239,123)"/>
<path d="M0 0 C0.33 0.66 0.66 1.32 1 2 C3.02463255 2.65213292 3.02463255 2.65213292 5 3 C4.67 4.32 4.34 5.64 4 7 C3.01 7 2.02 7 1 7 C0.67 4.69 0.34 2.38 0 0 Z " fill="#657290" transform="translate(78,118)"/>
<path d="M0 0 C1.32 0.33 2.64 0.66 4 1 C4 1.99 4 2.98 4 4 C1.69 4 -0.62 4 -3 4 C-2.34 3.67 -1.68 3.34 -1 3 C-0.67 2.01 -0.34 1.02 0 0 Z " fill="#057795" transform="translate(507,95)"/>
<path d="M0 0 C0.66 0 1.32 0 2 0 C2.33 2.31 2.66 4.62 3 7 C2.01 6.67 1.02 6.34 0 6 C0 4.02 0 2.04 0 0 Z " fill="#386C8D" transform="translate(4,99)"/>
<path d="M0 0 C0.66 0 1.32 0 2 0 C2 1.32 2 2.64 2 4 C2.99 4.33 3.98 4.66 5 5 C4.67 6.65 4.34 8.3 4 10 C1.04816899 7.04816899 0.91336012 4.04488053 0 0 Z " fill="#535F7C" transform="translate(174,55)"/>
<path d="M0 0 C-0.33 0.99 -0.66 1.98 -1 3 C-2.65 3.33 -4.3 3.66 -6 4 C-6 3.01 -6 2.02 -6 1 C-3.92446352 0.4465236 -2.15634036 0 0 0 Z " fill="#747D95" transform="translate(410,132)"/>
<path d="M0 0 C0.6875 1.6875 0.6875 1.6875 1 4 C-0.3125 6.75 -0.3125 6.75 -2 9 C-2.66 9 -3.32 9 -4 9 C-4 8.34 -4 7.68 -4 7 C-3.34 7 -2.68 7 -2 7 C-1.855625 6.21625 -1.71125 5.4325 -1.5625 4.625 C-1 2 -1 2 0 0 Z " fill="#52607C" transform="translate(52,97)"/>
<path d="M0 0 C0.33 0 0.66 0 1 0 C1.33 1.65 1.66 3.3 2 5 C4.31 5.33 6.62 5.66 9 6 C9 6.33 9 6.66 9 7 C2.84765625 7.87890625 2.84765625 7.87890625 1 8 C0 7 0 7 -0.0625 3.4375 C-0.041875 2.303125 -0.02125 1.16875 0 0 Z " fill="#768195" transform="translate(307,87)"/>
<path d="M0 0 C0.66 0.33 1.32 0.66 2 1 C1.1875 2.9375 1.1875 2.9375 0 5 C-0.99 5.33 -1.98 5.66 -3 6 C-2.67 4.68 -2.34 3.36 -2 2 C-1.34 2 -0.68 2 0 2 C0 1.34 0 0.68 0 0 Z " fill="#041238" transform="translate(408,87)"/>
<path d="M0 0 C0.96070434 2.88211302 1.10581883 4.69850044 1.0625 7.6875 C1.05347656 8.49574219 1.04445313 9.30398437 1.03515625 10.13671875 C1.02355469 10.75160156 1.01195312 11.36648437 1 12 C0.67 11.34 0.34 10.68 0 10 C-0.66 10 -1.32 10 -2 10 C-1.34 6.7 -0.68 3.4 0 0 Z " fill="#040D34" transform="translate(388,76)"/>
<path d="M0 0 C0.99 0.495 0.99 0.495 2 1 C2 1.66 2 2.32 2 3 C2.66 3 3.32 3 4 3 C4.33 2.01 4.66 1.02 5 0 C5.66 0.99 6.32 1.98 7 3 C4 5 4 5 1 5 C0.67 3.35 0.34 1.7 0 0 Z " fill="#384667" transform="translate(274,71)"/>
<path d="M0 0 C1.5 1.1875 1.5 1.1875 3 3 C3.1875 5.6875 3.1875 5.6875 3 8 C2.01 7.67 1.02 7.34 0 7 C0 4.69 0 2.38 0 0 Z " fill="#071236" transform="translate(184,59)"/>
</svg>
