<?xml version="1.0" encoding="UTF-8"?>
<svg version="1.1" xmlns="http://www.w3.org/2000/svg" width="145" height="145">
<path d="M0 0 C0.81598663 0.00041794 1.63197327 0.00083588 2.47268677 0.00126648 C4.19240257 0.00961741 5.91211058 0.03499056 7.63134766 0.07641602 C10.24393948 0.13640023 12.85166344 0.13799921 15.46484375 0.13085938 C17.14326456 0.14627584 18.82165858 0.16504703 20.5 0.1875 C21.65663651 0.18947136 21.65663651 0.18947136 22.8366394 0.19148254 C29.57743579 0.39431764 35.00488505 2.38371426 39.7578125 7.26171875 C42.89320763 12.20599569 43.98404409 15.91210807 43.3828125 21.82421875 C42.465165 23.95475686 41.43115964 25.92929359 40.2578125 27.9296875 C39.10328212 30.08164637 39.10328212 30.08164637 39.3828125 33.82421875 C40.57935159 35.27266081 41.7807211 36.72266322 43.09375 38.06640625 C47.50042063 44.07550257 47.02904736 51.75653619 46.3828125 58.82421875 C44.2391983 68.47690065 38.71965419 77.22406813 31.3828125 83.82421875 C30.7228125 83.82421875 30.0628125 83.82421875 29.3828125 83.82421875 C28.7228125 82.50421875 28.0628125 81.18421875 27.3828125 79.82421875 C27.3828125 81.80421875 27.3828125 83.78421875 27.3828125 85.82421875 C25.4028125 85.82421875 23.4228125 85.82421875 21.3828125 85.82421875 C21.3828125 88.13421875 21.3828125 90.44421875 21.3828125 92.82421875 C19.0078125 93.44921875 19.0078125 93.44921875 16.3828125 93.82421875 C14.3828125 91.82421875 14.3828125 91.82421875 14.2578125 88.69921875 C14.2990625 87.75046875 14.3403125 86.80171875 14.3828125 85.82421875 C12.4028125 85.82421875 10.4228125 85.82421875 8.3828125 85.82421875 C7.7578125 83.44921875 7.7578125 83.44921875 7.3828125 80.82421875 C9.3828125 78.82421875 9.3828125 78.82421875 12.0078125 78.69921875 C12.7915625 78.74046875 13.5753125 78.78171875 14.3828125 78.82421875 C14.3828125 76.84421875 14.3828125 74.86421875 14.3828125 72.82421875 C19.1328125 71.69921875 19.1328125 71.69921875 21.3828125 72.82421875 C21.3828125 74.80421875 21.3828125 76.78421875 21.3828125 78.82421875 C21.7128125 78.49421875 22.0428125 78.16421875 22.3828125 77.82421875 C22.2796875 77.08171875 22.1765625 76.33921875 22.0703125 75.57421875 C22.3828125 72.82421875 22.3828125 72.82421875 25.1328125 70.57421875 C25.67808594 70.16171875 26.22335938 69.74921875 26.78515625 69.32421875 C31.32453374 65.06230932 33.09464885 58.08156251 33.55078125 52.03515625 C33.25705608 48.1689133 31.79542872 44.84542285 29.3828125 41.82421875 C26.3031217 39.93760879 23.92339207 39.55968208 20.33886719 39.50537109 C19.33813171 39.4855014 18.33739624 39.46563171 17.30633545 39.44515991 C15.69676971 39.4278331 15.69676971 39.4278331 14.0546875 39.41015625 C12.95054504 39.3907901 11.84640259 39.37142395 10.70880127 39.35147095 C7.18355017 39.29170983 3.65826635 39.24530311 0.1328125 39.19921875 C-2.25782671 39.16103583 -4.64845221 39.12198392 -7.0390625 39.08203125 C-12.89831576 38.98601108 -18.75765165 38.90095327 -24.6171875 38.82421875 C-24.6171875 34.64896438 -23.61282883 32.21043626 -21.24755859 28.78027344 C-14.98533323 24.12341901 -5.38798375 25.77740063 2.0703125 25.94921875 C4.92381291 25.98286568 7.77663238 26.00378909 10.63032532 26.00924683 C12.40229558 26.01599208 14.17430936 26.04086222 15.94572449 26.08572388 C17.14761162 26.09960648 17.14761162 26.09960648 18.3737793 26.11376953 C19.07738083 26.12981232 19.78098236 26.1458551 20.50590515 26.16238403 C23.01717612 25.70992448 23.88234618 24.86152418 25.3828125 22.82421875 C25.6331702 19.19885899 25.6331702 19.19885899 25.3828125 15.82421875 C21.4551974 14.51501372 17.65710619 14.58959007 13.55859375 14.5078125 C12.26649239 14.47664085 12.26649239 14.47664085 10.94828796 14.44483948 C8.19737706 14.37946966 5.44637094 14.32051743 2.6953125 14.26171875 C0.83006829 14.21852158 -1.0351663 14.1749069 -2.90039062 14.13085938 C-7.47255874 14.02380112 -12.0448226 13.92249821 -16.6171875 13.82421875 C-14.31454561 4.38338698 -9.64986703 -0.29356187 0 0 Z " fill="#1C7E9C" transform="translate(98.6171875,41.17578125)"/>
<path d="M0 0 C2.37625177 -0.10883596 4.74743976 -0.18766696 7.125 -0.25 C7.79015625 -0.28351562 8.4553125 -0.31703125 9.140625 -0.3515625 C14.38039678 -0.45430312 16.93643298 0.80910335 21 4 C23.1340332 6.90087891 23.1340332 6.90087891 25.05078125 10.2265625 C25.39505661 10.81545258 25.73933197 11.40434265 26.09403992 12.01107788 C27.17980253 13.87523336 28.24621435 15.74964991 29.3125 17.625 C30.04628621 18.89134423 30.78130158 20.15697707 31.51757812 21.421875 C36.52602519 30.05205038 36.52602519 30.05205038 38 33 C42.90171026 25.81956825 47.37151813 18.4334548 51.76367188 10.93359375 C52.26833984 10.08152344 52.77300781 9.22945312 53.29296875 8.3515625 C53.7418042 7.58666504 54.19063965 6.82176758 54.65307617 6.03369141 C56.8167679 2.76677966 58.23855533 1.25381489 62 0 C64.39490986 -0.06970052 66.79167691 -0.08448003 69.1875 -0.0625 C70.45980469 -0.05347656 71.73210937 -0.04445312 73.04296875 -0.03515625 C74.50669922 -0.01775391 74.50669922 -0.01775391 76 0 C75.37060199 3.08530128 74.33684084 5.3806471 72.69921875 8.0625 C72.22274902 8.84906982 71.7462793 9.63563965 71.25537109 10.44604492 C70.73797363 11.2888501 70.22057617 12.13165527 69.6875 13 C68.5897319 14.80852586 67.49207887 16.61712158 66.39453125 18.42578125 C65.83072754 19.35084473 65.26692383 20.2759082 64.68603516 21.22900391 C62.06436444 25.53771556 59.46904429 29.86211837 56.875 34.1875 C56.38298096 35.00661865 55.89096191 35.8257373 55.3840332 36.66967773 C51.59010605 42.99330751 47.84045644 49.34224127 44.12060547 55.7097168 C42.47443762 58.52275774 40.80855359 61.28716961 39 64 C38.34 64 37.68 64 37 64 C35.45043945 61.73461914 35.45043945 61.73461914 33.61328125 58.53515625 C33.27924789 57.95887482 32.94521454 57.38259338 32.60105896 56.78884888 C31.87733768 55.53853411 31.15698142 54.286267 30.4395752 53.03231812 C28.92476195 50.38484031 27.39410176 47.74666434 25.86392212 45.10804749 C25.07762726 43.75201067 24.29213414 42.39550868 23.50741577 41.03855896 C19.65437356 34.38141072 15.71456888 27.77880176 11.75 21.1875 C11.14325439 20.17631104 10.53650879 19.16512207 9.91137695 18.12329102 C6.96219755 13.21875393 3.98229722 8.34634915 0.85644531 3.55200195 C0 2 0 2 0 0 Z " fill="#21446C" transform="translate(11,42)"/>
<path d="M0 0 C6.80535151 5.4260642 11.94114371 13.13645074 14.73046875 21.37890625 C14.35546875 23.69140625 14.35546875 23.69140625 13.73046875 25.37890625 C11.3984375 25.16015625 11.3984375 25.16015625 8.73046875 24.37890625 C7.28125 22.41015625 7.28125 22.41015625 6.04296875 19.87890625 C-0.63369808 8.0299355 -12.07994627 1.16453018 -24.890625 -2.71875 C-40.36323512 -6.36235479 -57.01124009 -5.12042947 -71.26953125 2.37890625 C-74.73117763 4.55237488 -78.00837454 6.91715646 -81.26953125 9.37890625 C-82.06359375 9.96800781 -82.85765625 10.55710937 -83.67578125 11.1640625 C-85.54850119 12.55871133 -87.41283088 13.96304256 -89.26953125 15.37890625 C-83.98118159 3.94190124 -72.45174747 -3.8458657 -61.13671875 -8.58984375 C-39.38014446 -16.41509663 -18.56836175 -13.26311554 0 0 Z " fill="#31BECD" transform="translate(104.26953125,12.62109375)"/>
<path d="M0 0 C1.4540625 0.0309375 1.4540625 0.0309375 2.9375 0.0625 C3.5975 3.0325 4.2575 6.0025 4.9375 9.0625 C3.00203884 10.21177384 1.06405872 11.35680642 -0.875 12.5 C-1.95394531 13.13808594 -3.03289062 13.77617187 -4.14453125 14.43359375 C-7.80250024 16.47559251 -10.41330908 17.18756776 -14.53393555 17.17602539 C-15.88499641 17.17591209 -15.88499641 17.17591209 -17.26335144 17.17579651 C-18.23218765 17.17063522 -19.20102386 17.16547394 -20.19921875 17.16015625 C-21.69108452 17.15803383 -21.69108452 17.15803383 -23.21308899 17.15586853 C-26.39208982 17.15026761 -29.57102043 17.13771496 -32.75 17.125 C-34.90429586 17.11998512 -37.05859282 17.11542219 -39.21289062 17.11132812 C-44.49611774 17.10029788 -49.77930385 17.08355886 -55.0625 17.0625 C-50.4375 12.1875 -50.4375 12.1875 -47.0625 11.0625 C-44.83268427 11.09431319 -42.60332078 11.16238271 -40.375 11.25 C-27.26214248 11.45857353 -15.35322935 7.69810043 -4.0625 1.0625 C-3.0625 0.0625 -3.0625 0.0625 0 0 Z " fill="#0D2F53" transform="translate(109.0625,127.9375)"/>
<path d="M0 0 C0.66 0 1.32 0 2 0 C2.27972656 1.01578125 2.55945313 2.0315625 2.84765625 3.078125 C7.93048238 20.82472153 16.74553265 35.3929521 33 45 C36.18210956 46.64815005 39.37944772 48.22738652 42.62890625 49.73828125 C45 51 45 51 46 53 C46.04022391 55.3329866 46.04320247 57.66706666 46 60 C43.36 60 40.72 60 38 60 C37.67 59.01 37.34 58.02 37 57 C35.04729068 55.6659578 35.04729068 55.6659578 32.625 54.4375 C17.22763402 45.45387277 6.77482509 31.11313363 2 14 C1.12062156 9.34855088 0.47305103 4.70932893 0 0 Z " fill="#204E6E" transform="translate(0,85)"/>
<path d="M0 0 C0.99 0 1.98 0 3 0 C4.485 7.92 4.485 7.92 6 16 C6.66 15.01 7.32 14.02 8 13 C8.99 13 9.98 13 11 13 C11.495 14.98 11.495 14.98 12 17 C15.96 17 19.92 17 24 17 C24 17.99 24 18.98 24 20 C19.38 20.33 14.76 20.66 10 21 C8.68 24.3 7.36 27.6 6 31 C5.01 31 4.02 31 3 31 C1.515 23.575 1.515 23.575 0 16 C-0.99 18.97 -1.98 21.94 -3 25 C-3.99 24.67 -4.98 24.34 -6 24 C-6.66 22.68 -7.32 21.36 -8 20 C-14.27 20 -20.54 20 -27 20 C-26.505 18.515 -26.505 18.515 -26 17 C-24.96359375 16.97421875 -23.9271875 16.9484375 -22.859375 16.921875 C-21.48954199 16.86558049 -20.11975195 16.80823345 -18.75 16.75 C-18.06808594 16.73582031 -17.38617188 16.72164062 -16.68359375 16.70703125 C-13.12887794 16.53447223 -11.29786441 16.2454103 -8.515625 13.953125 C-8.01546875 13.30859375 -7.5153125 12.6640625 -7 12 C-6.34 12.66 -5.68 13.32 -5 14 C-4.72285156 13.07316406 -4.44570312 12.14632812 -4.16015625 11.19140625 C-3.79792969 9.99386719 -3.43570313 8.79632813 -3.0625 7.5625 C-2.70285156 6.36753906 -2.34320313 5.17257813 -1.97265625 3.94140625 C-1 1 -1 1 0 0 Z " fill="#3A4D74" transform="translate(76,94)"/>
<path d="M0 0 C0.81598663 0.00041794 1.63197327 0.00083588 2.47268677 0.00126648 C4.19240257 0.00961741 5.91211058 0.03499056 7.63134766 0.07641602 C10.24393948 0.13640023 12.85166344 0.13799921 15.46484375 0.13085938 C17.14326456 0.14627584 18.82165858 0.16504703 20.5 0.1875 C21.65663651 0.18947136 21.65663651 0.18947136 22.8366394 0.19148254 C28.59340484 0.36470749 32.38041844 1.97771117 37.3828125 4.82421875 C36.7228125 5.15421875 36.0628125 5.48421875 35.3828125 5.82421875 C34.2690625 5.32921875 34.2690625 5.32921875 33.1328125 4.82421875 C29.73410338 3.58832452 27.92443669 4.21124533 24.3828125 4.82421875 C22.92055553 4.69647511 21.46162627 4.52655366 20.0078125 4.32421875 C15.07086894 3.67264244 9.94135382 3.54494809 5.3828125 5.82421875 C3.39453125 5.44921875 3.39453125 5.44921875 1.0703125 4.82421875 C-2.49972348 3.96050037 -5.04109954 3.67064199 -8.6171875 4.82421875 C-9.55142395 7.83453619 -9.66168661 8.69072143 -8.6171875 11.82421875 C-6.9671875 11.82421875 -5.3171875 11.82421875 -3.6171875 11.82421875 C-3.6171875 11.16421875 -3.6171875 10.50421875 -3.6171875 9.82421875 C-2.9571875 9.82421875 -2.2971875 9.82421875 -1.6171875 9.82421875 C-1.6171875 10.48421875 -1.6171875 11.14421875 -1.6171875 11.82421875 C1.27892794 11.68287148 4.1746206 11.53630345 7.0703125 11.38671875 C7.88693359 11.34740234 8.70355469 11.30808594 9.54492188 11.26757812 C13.57937061 11.05523872 17.44028559 10.77973953 21.3828125 9.82421875 C22.7028125 11.47421875 24.0228125 13.12421875 25.3828125 14.82421875 C21.43946951 14.82421875 17.50029536 14.7084064 13.55859375 14.60546875 C12.69719284 14.58327271 11.83579193 14.56107666 10.94828796 14.53820801 C8.19728668 14.46723897 5.4462996 14.39573529 2.6953125 14.32421875 C0.83007903 14.27600645 -1.03515533 14.22782894 -2.90039062 14.1796875 C-7.47266679 14.06160156 -12.04493029 13.94303613 -16.6171875 13.82421875 C-14.31454561 4.38338698 -9.64986703 -0.29356187 0 0 Z " fill="#53C3D0" transform="translate(98.6171875,41.17578125)"/>
<path d="M0 0 C1.65 0 3.3 0 5 0 C5 1.98 5 3.96 5 6 C7.31 6 9.62 6 12 6 C12 7.98 12 9.96 12 12 C10.02 12 8.04 12 6 12 C6 14.31 6 16.62 6 19 C3.625 19.625 3.625 19.625 1 20 C-1 18 -1 18 -1.125 14.875 C-1.08375 13.92625 -1.0425 12.9775 -1 12 C-2.98 12 -4.96 12 -7 12 C-7.38218767 10.34385343 -7.71395102 8.67542976 -8 7 C-7 6 -7 6 -3.4375 5.9375 C-2.303125 5.958125 -1.16875 5.97875 0 6 C0 4.02 0 2.04 0 0 Z " fill="#2F4267" transform="translate(114,115)"/>
<path d="M0 0 C0.495 1.485 0.495 1.485 1 3 C5.29 3 9.58 3 14 3 C14 3.33 14 3.66 14 4 C12.69546875 4.17015625 11.3909375 4.3403125 10.046875 4.515625 C-8.79652391 7.07837057 -22.88399958 11.69293944 -37 25 C-37 20.21797188 -33.77721936 17.95011672 -30.625 14.56640625 C-24.29746076 8.38010673 -9.40704603 -3.76281841 0 0 Z " fill="#40C3D2" transform="translate(53,3)"/>
<path d="M0 0 C0.66 0 1.32 0 2 0 C2.27972656 1.01578125 2.55945313 2.0315625 2.84765625 3.078125 C6.84122699 17.02160579 12.7831247 27.52828201 23 38 C22.690625 38.598125 22.38125 39.19625 22.0625 39.8125 C20.89790296 42.08956772 20.89790296 42.08956772 20 45 C7.93428394 32.85887321 0.77310226 17.12421501 0 0 Z " fill="#2A5F7C" transform="translate(0,85)"/>
<path d="M0 0 C0.66 0.33 1.32 0.66 2 1 C1.67 1.66 1.34 2.32 1 3 C-1.32156597 3.40729228 -3.6568787 3.74438677 -6 4 C-6 4.66 -6 5.32 -6 6 C-6.62648437 6.18175781 -7.25296875 6.36351562 -7.8984375 6.55078125 C-8.71570313 6.80214844 -9.53296875 7.05351562 -10.375 7.3125 C-11.18710938 7.55613281 -11.99921875 7.79976562 -12.8359375 8.05078125 C-15.33184629 8.91368185 -15.33184629 8.91368185 -17 12 C-19.70556641 12.34057617 -19.70556641 12.34057617 -23.1015625 12.29296875 C-24.91914062 12.2784668 -24.91914062 12.2784668 -26.7734375 12.26367188 C-28.04445313 12.23853516 -29.31546875 12.21339844 -30.625 12.1875 C-31.90375 12.17396484 -33.1825 12.16042969 -34.5 12.14648438 C-37.66708282 12.11103196 -40.83333541 12.06161441 -44 12 C-39.375 7.125 -39.375 7.125 -36 6 C-33.77018427 6.03181319 -31.54082078 6.09988271 -29.3125 6.1875 C-19.97575448 6.37860971 -10.77963935 4.43604634 -2.1640625 0.8046875 C-1.44992188 0.53914062 -0.73578125 0.27359375 0 0 Z " fill="#274566" transform="translate(98,133)"/>
<path d="M0 0 C0.66 0 1.32 0 2 0 C2 0.66 2 1.32 2 2 C3.5778125 1.5978125 3.5778125 1.5978125 5.1875 1.1875 C9 1 9 1 11.625 2.8125 C14.66985098 6.89901052 17.34579978 11.15555649 19 16 C18.6328125 18.30859375 18.6328125 18.30859375 18 20 C15.6796875 19.7890625 15.6796875 19.7890625 13 19 C11.4453125 16.9609375 11.4453125 16.9609375 10.125 14.375 C7.68879104 9.94668268 5.06461907 6.74649683 1.3203125 3.375 C0 2 0 2 0 0 Z " fill="#2CA5BC" transform="translate(100,18)"/>
<path d="M0 0 C0.66 2.97 1.32 5.94 2 9 C-5.26153846 14.04615385 -5.26153846 14.04615385 -9 13.8125 C-9.66 13.544375 -10.32 13.27625 -11 13 C-11.125 7.25 -11.125 7.25 -10 5 C-10.66 4.67 -11.32 4.34 -12 4 C-7.81413519 0.81076967 -5.29441695 -0.50423019 0 0 Z " fill="#26476B" transform="translate(112,128)"/>
<path d="M0 0 C1.5 1.375 1.5 1.375 3 3 C3 3.66 3 4.32 3 5 C4.65 5 6.3 5 8 5 C8 4.34 8 3.68 8 3 C8.66 3 9.32 3 10 3 C10 3.66 10 4.32 10 5 C12.89611544 4.85865273 15.7918081 4.7120847 18.6875 4.5625 C19.50412109 4.52318359 20.32074219 4.48386719 21.16210938 4.44335938 C25.19655811 4.23101997 29.05747309 3.95552078 33 3 C34.32 4.65 35.64 6.3 37 8 C33.05665701 8 29.11748286 7.88418765 25.17578125 7.78125 C24.31438034 7.75905396 23.45297943 7.73685791 22.56547546 7.71398926 C19.81447418 7.64302022 17.0634871 7.57151654 14.3125 7.5 C12.44726653 7.4517877 10.58203217 7.40361019 8.71679688 7.35546875 C4.14452071 7.23738281 -0.42774279 7.11881738 -5 7 C-4.6875 5.0625 -4.6875 5.0625 -4 3 C-3.01 2.67 -2.02 2.34 -1 2 C-0.67 1.34 -0.34 0.68 0 0 Z " fill="#51ADC1" transform="translate(87,48)"/>
<path d="M0 0 C0.66 1.32 1.32 2.64 2 4 C0.02 6.64 -1.96 9.28 -4 12 C0.17908064 14.08954032 0.80410573 14.16552619 5 13 C4.4409112 16.24271506 3.5867822 17.93057424 1 20 C0.34 20 -0.32 20 -1 20 C-1.33 18.68 -1.66 17.36 -2 16 C-4.64 16 -7.28 16 -10 16 C-10 14.02 -10 12.04 -10 10 C-11.65 10 -13.3 10 -15 10 C-15 11.98 -15 13.96 -15 16 C-16.98 16 -18.96 16 -21 16 C-21 15.67 -21 15.34 -21 15 C-19.35 15 -17.7 15 -16 15 C-16 13.02 -16 11.04 -16 9 C-11.25 7.875 -11.25 7.875 -9 9 C-9 10.98 -9 12.96 -9 15 C-8.67 14.67 -8.34 14.34 -8 14 C-8.103125 13.2575 -8.20625 12.515 -8.3125 11.75 C-8 9 -8 9 -5.125 6.4375 C-4.09375 5.633125 -3.0625 4.82875 -2 4 C-0.62745412 1.85019503 -0.62745412 1.85019503 0 0 Z " fill="#697995" transform="translate(129,105)"/>
<path d="M0 0 C0.99 0.66 1.98 1.32 3 2 C3.66 1.34 4.32 0.68 5 0 C5 1.65 5 3.3 5 5 C4.01 5 3.02 5 2 5 C2 6.32 2 7.64 2 9 C2.99 9.33 3.98 9.66 5 10 C5 10.99 5 11.98 5 13 C4.01 12.67 3.02 12.34 2 12 C1.34 10.68 0.68 9.36 0 8 C-6.27 8 -12.54 8 -19 8 C-18.67 7.01 -18.34 6.02 -18 5 C-16.95199219 4.97421875 -15.90398438 4.9484375 -14.82421875 4.921875 C-13.44527098 4.86559142 -12.06636635 4.80824412 -10.6875 4.75 C-9.99720703 4.73582031 -9.30691406 4.72164063 -8.59570312 4.70703125 C-4.31566483 4.50142021 -4.31566483 4.50142021 -1.01953125 1.953125 C-0.51486328 0.98632812 -0.51486328 0.98632812 0 0 Z " fill="#4F5E7F" transform="translate(68,106)"/>
<path d="M0 0 C0.66 0 1.32 0 2 0 C2.31453125 1.07378906 2.6290625 2.14757812 2.953125 3.25390625 C3.38496401 4.69024034 3.81728132 6.12643068 4.25 7.5625 C4.45496094 8.26697266 4.65992188 8.97144531 4.87109375 9.69726562 C5.97792039 13.33637744 7.19401547 16.49988641 9.1875 19.75 C11.70123853 24.25739322 11.02827104 26.11571254 10 31 C2.83522663 22.26858522 1.09480268 10.89900575 0 0 Z " fill="#477A97" transform="translate(0,85)"/>
<path d="M0 0 C2.02045442 0.60183749 4.02111039 1.27306096 6 2 C7.4783226 4.95664519 7.06032783 7.74229737 7 11 C4.36 11 1.72 11 -1 11 C-1.33 10.01 -1.66 9.02 -2 8 C-2.66 7.34 -3.32 6.68 -4 6 C-2.68 5.34 -1.36 4.68 0 4 C0 2.68 0 1.36 0 0 Z " fill="#476785" transform="translate(39,134)"/>
<path d="M0 0 C0.99 0 1.98 0 3 0 C3.33 1.32 3.66 2.64 4 4 C7.96 4 11.92 4 16 4 C16 4.99 16 5.98 16 7 C15.01257813 7.06058594 14.02515625 7.12117188 13.0078125 7.18359375 C11.72648437 7.26738281 10.44515625 7.35117188 9.125 7.4375 C7.84882812 7.51871094 6.57265625 7.59992188 5.2578125 7.68359375 C2.11699848 7.79206027 2.11699848 7.79206027 0 9 C0.33 7.35 0.66 5.7 1 4 C0.34 3.67 -0.32 3.34 -1 3 C-0.67 2.01 -0.34 1.02 0 0 Z " fill="#4F5E80" transform="translate(84,107)"/>
<path d="M0 0 C0.66 0 1.32 0 2 0 C2 0.66 2 1.32 2 2 C3.65 2 5.3 2 7 2 C7.33 3.32 7.66 4.64 8 6 C5 8 5 8 1.9375 7.875 C-1 7 -1 7 -2.375 4.9375 C-2.58125 4.298125 -2.7875 3.65875 -3 3 C-2.34 3 -1.68 3 -1 3 C-0.67 2.01 -0.34 1.02 0 0 Z " fill="#214C6D" transform="translate(32,132)"/>
<path d="M0 0 C1.75 1 1.75 1 2.75 4 C7.04 4 11.33 4 15.75 4 C15.75 4.33 15.75 4.66 15.75 5 C12.48112432 5.39360387 9.20986587 5.761653 5.9375 6.125 C5.00873047 6.23714844 4.07996094 6.34929688 3.12304688 6.46484375 C2.23037109 6.56152344 1.33769531 6.65820312 0.41796875 6.7578125 C-0.81530151 6.89920654 -0.81530151 6.89920654 -2.07348633 7.04345703 C-4.25 7 -4.25 7 -7.25 5 C-2.8597561 -0 -2.8597561 -0 0 0 Z " fill="#4DC9D6" transform="translate(51.25,2)"/>
<path d="M0 0 C2.5654594 2.5654594 2.54046087 4.47686668 3 8 C1.35 8.33 -0.3 8.66 -2 9 C-2.99 7.02 -3.98 5.04 -5 3 C-3.35 2.01 -1.7 1.02 0 0 Z " fill="#4CAEBF" transform="translate(116,29)"/>
<path d="M0 0 C6.27 0 12.54 0 19 0 C19 0.33 19 0.66 19 1 C15.04 1 11.08 1 7 1 C7 1.99 7 2.98 7 4 C4.03 4 1.06 4 -2 4 C-1.34 2.68 -0.68 1.36 0 0 Z " fill="#042146" transform="translate(60,141)"/>
<path d="M0 0 C0.99 0 1.98 0 3 0 C5.35580196 5.44779202 5.9652158 11.15247902 5 17 C2.5 19.1875 2.5 19.1875 0 20 C0.15597656 19.443125 0.31195313 18.88625 0.47265625 18.3125 C2.16474044 11.67863352 2.19549819 6.58649457 0 0 Z " fill="#467895" transform="translate(130,85)"/>
<path d="M0 0 C0.66 0.33 1.32 0.66 2 1 C1.66802317 4.01489166 1.02741538 4.97393846 -1.21484375 7.10546875 C-2.56255859 8.13607422 -2.56255859 8.13607422 -3.9375 9.1875 C-4.83339844 9.88230469 -5.72929687 10.57710937 -6.65234375 11.29296875 C-9 13 -9 13 -11 14 C-9.57442379 10.82096506 -7.8226848 8.46341568 -5.5 5.875 C-4.8915625 5.19179688 -4.283125 4.50859375 -3.65625 3.8046875 C-2.46695076 2.50880012 -1.24373566 1.24373566 0 0 Z " fill="#65C2D1" transform="translate(26,14)"/>
<path d="M0 0 C3.3 1.65 6.6 3.3 10 5 C10 5.33 10 5.66 10 6 C8.35 6 6.7 6 5 6 C5 5.34 5 4.68 5 4 C4.34 4 3.68 4 3 4 C2.67 5.32 2.34 6.64 2 8 C0.68 8 -0.64 8 -2 8 C-2.33 7.34 -2.66 6.68 -3 6 C-2.34 6 -1.68 6 -1 6 C-0.67 4.02 -0.34 2.04 0 0 Z " fill="#3A607E" transform="translate(29,128)"/>
<path d="M0 0 C0.66 1.32 1.32 2.64 2 4 C0.02 6.64 -1.96 9.28 -4 12 C-6 11 -6 11 -7 10 C-7.33 11.32 -7.66 12.64 -8 14 C-8.375 11.8125 -8.375 11.8125 -8 9 C-6.05651499 7.26776336 -4.05279996 5.60118397 -2 4 C-0.62745412 1.85019503 -0.62745412 1.85019503 0 0 Z " fill="#486385" transform="translate(129,105)"/>
<path d="M0 0 C0.33 0 0.66 0 1 0 C1.05410687 1.77049689 1.09284119 3.54146849 1.125 5.3125 C1.14820312 6.29863281 1.17140625 7.28476563 1.1953125 8.30078125 C1 11 1 11 -1 14 C-1.99 13.34 -2.98 12.68 -4 12 C-4 10.68 -4 9.36 -4 8 C-3.01 8 -2.02 8 -1 8 C-0.67 5.36 -0.34 2.72 0 0 Z " fill="#1B2E56" transform="translate(74,103)"/>
<path d="M0 0 C0.66 0 1.32 0 2 0 C5.62870159 11.52164009 5.62870159 11.52164009 4 17 C1.64019954 13.4602993 1.41399192 11.00893712 0.875 6.8125 C0.70742187 5.54019531 0.53984375 4.26789063 0.3671875 2.95703125 C0.24601562 1.98121094 0.12484375 1.00539063 0 0 Z " fill="#7196AB" transform="translate(0,85)"/>
<path d="M0 0 C2.1875 2.5 2.1875 2.5 4 5 C3.01 5 2.02 5 1 5 C0.67 4.67 0.34 4.34 0 4 C-2.18292774 3.76518307 -4.37203174 3.58636677 -6.5625 3.4375 C-8.35880859 3.31181641 -8.35880859 3.31181641 -10.19140625 3.18359375 C-11.11824219 3.12300781 -12.04507813 3.06242187 -13 3 C-11 1 -11 1 -8 0.9375 C-7.01 0.958125 -6.02 0.97875 -5 1 C-3 0 -3 0 0 0 Z " fill="#1A99B1" transform="translate(120,51)"/>
<path d="M0 0 C2 1.3125 2 1.3125 4 4 C4.36089448 7.68855385 4.22933459 11.3051649 4 15 C-0.00304878 11.07393293 -0.00304878 11.07393293 -1 8 C-0.86384919 5.27174732 -0.45066966 2.70401794 0 0 Z " fill="#617594" transform="translate(74,98)"/>
<path d="M0 0 C11.70615034 -0.55353075 11.70615034 -0.55353075 16 3 C15.01 3.495 15.01 3.495 14 4 C12.88625 3.505 12.88625 3.505 11.75 3 C8.40530813 1.78374841 6.44258422 2.32645091 3 3 C2.01 2.67 1.02 2.34 0 2 C0 1.34 0 0.68 0 0 Z " fill="#2FB5C4" transform="translate(120,43)"/>
<path d="M0 0 C4.95 0 9.9 0 15 0 C15 0.33 15 0.66 15 1 C14.37351562 1.02578125 13.74703125 1.0515625 13.1015625 1.078125 C12.28429688 1.13484375 11.46703125 1.1915625 10.625 1.25 C9.81289063 1.29640625 9.00078125 1.3428125 8.1640625 1.390625 C5.81161073 1.7922092 5.81161073 1.7922092 4.7109375 4.046875 C4.47632813 4.69140625 4.24171875 5.3359375 4 6 C2.62437146 4.71034824 1.29233607 3.37310707 0 2 C0 1.34 0 0.68 0 0 Z " fill="#6A99AD" transform="translate(11,42)"/>
<path d="M0 0 C0 0.33 0 0.66 0 1 C-1.20398438 1.03738281 -2.40796875 1.07476562 -3.6484375 1.11328125 C-5.22399011 1.17892928 -6.79950954 1.24537701 -8.375 1.3125 C-9.1690625 1.33505859 -9.963125 1.35761719 -10.78125 1.38085938 C-12.86215581 1.47785075 -14.93441332 1.72994825 -17 2 C-17.99 3.485 -17.99 3.485 -19 5 C-20.32 4.67 -21.64 4.34 -23 4 C-16.25431509 -2.91432704 -8.87352932 -1.07590211 0 0 Z " fill="#596F8A" transform="translate(77,140)"/>
<path d="M0 0 C0.66 0 1.32 0 2 0 C2 0.66 2 1.32 2 2 C5.465 1.505 5.465 1.505 9 1 C9 2.65 9 4.3 9 6 C3.50847458 5.38983051 3.50847458 5.38983051 1.125 3.5625 C0 2 0 2 0 0 Z " fill="#17A3BB" transform="translate(100,18)"/>
<path d="M0 0 C0.90105469 0.02707031 1.80210938 0.05414063 2.73046875 0.08203125 C3.76107422 0.13423828 3.76107422 0.13423828 4.8125 0.1875 C1.17633344 2.1664756 -2.07175629 2.7126065 -6.1875 3.1875 C-6.5175 4.8375 -6.8475 6.4875 -7.1875 8.1875 C-8.1775 8.1875 -9.1675 8.1875 -10.1875 8.1875 C-8.1106538 2.27647621 -6.52406776 -0.25418446 0 0 Z " fill="#38B2C7" transform="translate(94.1875,42.8125)"/>
<path d="M0 0 C1.65 0 3.3 0 5 0 C5 1.98 5 3.96 5 6 C3.35 6 1.7 6 0 6 C0 4.02 0 2.04 0 0 Z " fill="#0A2458" transform="translate(114,115)"/>
<path d="M0 0 C0.66 0 1.32 0 2 0 C2.33 0.99 2.66 1.98 3 3 C3.66 3.66 4.32 4.32 5 5 C5.40047444 7.32275177 5.7397104 9.65739357 6 12 C3.04250209 8.53258866 0.92151848 5.13126473 -1 1 C-0.67 0.67 -0.34 0.34 0 0 Z " fill="#445A7C" transform="translate(36,82)"/>
<path d="M0 0 C0.99 0 1.98 0 3 0 C3.98248524 4.0527516 4.08159574 7.83861737 4 12 C3.67 12 3.34 12 3 12 C3 10.35 3 8.7 3 7 C2.01 6.67 1.02 6.34 0 6 C0 4.02 0 2.04 0 0 Z " fill="#0D234F" transform="translate(75,95)"/>
<path d="M0 0 C0.66 0 1.32 0 2 0 C2 0.99 2 1.98 2 3 C2.66 3 3.32 3 4 3 C4.33 3.99 4.66 4.98 5 6 C4.67 6.66 4.34 7.32 4 8 C4.66 8.33 5.32 8.66 6 9 C5.01 9 4.02 9 3 9 C1.68 6.36 0.36 3.72 -1 1 C-0.67 0.67 -0.34 0.34 0 0 Z " fill="#485979" transform="translate(43,94)"/>
<path d="M0 0 C1.76462683 3.08809695 2 4.23312136 2 8 C0.35 8 -1.3 8 -3 8 C-3 7.01 -3 6.02 -3 5 C-2.34 4.67 -1.68 4.34 -1 4 C-0.34786708 1.97536745 -0.34786708 1.97536745 0 0 Z " fill="#092E55" transform="translate(43,137)"/>
<path d="M0 0 C0 0.33 0 0.66 0 1 C-1.65 1.33 -3.3 1.66 -5 2 C-5.33 3.32 -5.66 4.64 -6 6 C-7.32 6 -8.64 6 -10 6 C-10 4.68 -10 3.36 -10 2 C-6.5980513 -0.09350689 -3.94727588 -0.17942163 0 0 Z " fill="#05153C" transform="translate(125,125)"/>
<path d="M0 0 C3 1 3 1 4.16796875 2.84765625 C4.50441406 3.57855469 4.84085938 4.30945312 5.1875 5.0625 C5.53167969 5.79597656 5.87585938 6.52945313 6.23046875 7.28515625 C6.48441406 7.85105469 6.73835938 8.41695312 7 9 C6.01 9 5.02 9 4 9 C0 2.25 0 2.25 0 0 Z " fill="#447290" transform="translate(16,50)"/>
<path d="M0 0 C1.32 0.33 2.64 0.66 4 1 C3.67 2.32 3.34 3.64 3 5 C1.68 5.33 0.36 5.66 -1 6 C-1.33 5.34 -1.66 4.68 -2 4 C-1.34 4 -0.68 4 0 4 C0 2.68 0 1.36 0 0 Z " fill="#073053" transform="translate(36,134)"/>
<path d="M0 0 C1.5 1.375 1.5 1.375 3 3 C3 3.66 3 4.32 3 5 C0.69 5 -1.62 5 -4 5 C-4 4.34 -4 3.68 -4 3 C-3.01 2.67 -2.02 2.34 -1 2 C-0.67 1.34 -0.34 0.68 0 0 Z " fill="#189CB7" transform="translate(87,48)"/>
<path d="M0 0 C4.42857143 5.14285714 4.42857143 5.14285714 5 9 C3.0625 8.6875 3.0625 8.6875 1 8 C0.67 7.01 0.34 6.02 0 5 C0.33 4.67 0.66 4.34 1 4 C0.34 3.34 -0.32 2.68 -1 2 C-0.67 1.34 -0.34 0.68 0 0 Z " fill="#547C97" transform="translate(34,51)"/>
<path d="M0 0 C2.99324263 1.0975223 3.84610901 1.67682892 5.25 4.625 C5.4975 5.40875 5.745 6.1925 6 7 C4.125 6.875 4.125 6.875 2 6 C0.75 2.9375 0.75 2.9375 0 0 Z " fill="#4C7E97" transform="translate(28,44)"/>
<path d="M0 0 C0.66 0.33 1.32 0.66 2 1 C1.67 1.99 1.34 2.98 1 4 C-0.98 4.33 -2.96 4.66 -5 5 C-4.1875 3.0625 -4.1875 3.0625 -3 1 C-2.01 0.67 -1.02 0.34 0 0 Z " fill="#33B6CB" transform="translate(31,12)"/>
<path d="M0 0 C0.33 0.66 0.66 1.32 1 2 C3.02463255 2.65213292 3.02463255 2.65213292 5 3 C4.67 4.32 4.34 5.64 4 7 C3.01 7 2.02 7 1 7 C0.67 4.69 0.34 2.38 0 0 Z " fill="#657290" transform="translate(78,118)"/>
<path d="M0 0 C0.66 0 1.32 0 2 0 C2.33 2.31 2.66 4.62 3 7 C2.01 6.67 1.02 6.34 0 6 C0 4.02 0 2.04 0 0 Z " fill="#386C8D" transform="translate(4,99)"/>
<path d="M0 0 C0.6875 1.6875 0.6875 1.6875 1 4 C-0.3125 6.75 -0.3125 6.75 -2 9 C-2.66 9 -3.32 9 -4 9 C-4 8.34 -4 7.68 -4 7 C-3.34 7 -2.68 7 -2 7 C-1.855625 6.21625 -1.71125 5.4325 -1.5625 4.625 C-1 2 -1 2 0 0 Z " fill="#52607C" transform="translate(52,97)"/>
</svg>
